<?xml version="1.0" encoding="UTF-8"?>
<svg version="1.1" xmlns="http://www.w3.org/2000/svg" width="900" height="900">
<path d="M0 0 C297 0 594 0 900 0 C900 297 900 594 900 900 C603 900 306 900 0 900 C0 603 0 306 0 0 Z " fill="#1B1C1C" transform="translate(0,0)"/>
<path d="M0 0 C0 0.66 0 1.32 0 2 C0.99 2 1.98 2 3 2 C4.27792114 3.44175718 5.5484527 4.89356607 6.7265625 6.41796875 C8.07122147 8.1770037 8.07122147 8.1770037 10.3125 10.0625 C12 12 12 12 12.25 14.75 C12.1675 15.4925 12.085 16.235 12 17 C12.66 17 13.32 17 14 17 C14.33 72.44 14.66 127.88 15 185 C15.66 184.67 16.32 184.34 17 184 C19.76818696 183.90195676 22.51123909 183.8654682 25.27970886 183.87301636 C26.1462754 183.87145637 27.01284195 183.86989638 27.90566808 183.86828911 C30.82669611 183.86428162 33.7476727 183.86746786 36.66870117 183.87060547 C38.75613434 183.86925127 40.84356728 183.86747123 42.93099976 183.86529541 C48.61506028 183.86072191 54.29910274 183.86251067 59.9831636 183.8656745 C65.92565063 183.8682002 71.86813608 183.86585981 77.81062317 183.86428833 C87.79701008 183.86246654 97.7833896 183.86487244 107.76977539 183.86962891 C119.31447257 183.8750641 130.85915208 183.87331431 142.40384883 183.8678025 C152.30880134 183.86326275 162.21374854 183.86262528 172.11870176 183.86524117 C178.03723364 183.86680015 183.95575721 183.86700821 189.87428856 183.86370468 C195.44330928 183.86081374 201.01230726 183.86282421 206.58132553 183.86859894 C208.62472178 183.86992028 210.66811994 183.86954303 212.71151543 183.86733627 C215.50282702 183.86460004 218.29406595 183.86803628 221.08537292 183.87301636 C222.29589971 183.86967027 222.29589971 183.86967027 223.53088158 183.86625659 C237.16686504 183.91337564 246.34662334 188.34662334 255.984375 197.984375 C264.11411141 206.94793052 268.58404037 216.53168344 268.4375 228.6875 C268.42722778 229.99763062 268.42722778 229.99763062 268.41674805 231.33422852 C268.21137569 239.68373023 267.33212292 248.91345402 261.375 255.3125 C259 257 259 257 257 257 C256.63068359 257.81791016 256.63068359 257.81791016 256.25390625 258.65234375 C254.1790102 262.53711798 251.41570615 265.92518004 248.77734375 269.44140625 C246.86350601 271.94027823 246.86350601 271.94027823 246 275 C245.01 275 244.02 275 243 275 C242.91105469 275.56203125 242.82210938 276.1240625 242.73046875 276.703125 C241.79677081 279.63903083 240.28599971 281.38931844 238.3125 283.75 C235.14896513 287.58372718 232.13131526 291.47133049 229.2265625 295.50390625 C228 297 228 297 226 298 C225.566875 298.7425 225.13375 299.485 224.6875 300.25 C223 303 223 303 220.80859375 305.171875 C217.40880337 308.59530787 214.40505735 312.25047698 211.375 316 C210.80265625 316.69867188 210.2303125 317.39734375 209.640625 318.1171875 C206.79684679 321.62230948 204.24365069 325.0699452 202 329 C201 330 200 331 199 332 C198.5875 332.721875 198.175 333.44375 197.75 334.1875 C195.68706201 337.50293606 193.23540132 340.24301875 190.62109375 343.1328125 C188.83464118 345.11086362 188.83464118 345.11086362 187 348 C186.34 348 185.68 348 185 348 C185 349.32 185 350.64 185 352 C183.62705685 352.85808947 182.25060452 353.71094969 180.859375 354.5390625 C176.20648133 358.19490753 172.13785272 364.06129377 170.0078125 369.5625 C168.81110884 372.45685303 167.24287675 374.26480352 165.125 376.5625 C164.44695312 377.30628906 163.76890625 378.05007813 163.0703125 378.81640625 C162.38710938 379.53699219 161.70390625 380.25757813 161 381 C160.29617188 381.75152344 159.59234375 382.50304687 158.8671875 383.27734375 C157 385 157 385 155 385 C154.7628125 385.7115625 154.525625 386.423125 154.28125 387.15625 C152.783068 390.48148321 150.89031553 392.74659857 148.5 395.5 C144.75903441 399.87432745 141.13179595 404.31034705 137.625 408.875 C136.83351563 409.90367187 136.04203125 410.93234375 135.2265625 411.9921875 C133.74371503 413.99533232 132.32047876 416.04401539 130.9609375 418.1328125 C129.14242871 420.79174767 127.28812408 422.7545648 125 425 C123.10911569 427.24686634 121.30481134 429.55874348 119.5 431.875 C118.79037109 432.77412109 118.79037109 432.77412109 118.06640625 433.69140625 C115.90624866 436.44994544 113.87732157 439.18920788 111.96875 442.1328125 C109.90241784 445.1421137 107.59699494 447.44241318 105 450 C103.20471901 452.13704161 101.5100283 454.34742131 99.8125 456.5625 C96.18686838 461.240535 92.50242312 465.84993336 88.6875 470.375 C84.18370139 475.73802887 79.8854481 481.17182785 76 487 C75.34 487 74.68 487 74 487 C74 487.66 74 488.32 74 489 C73.34 489 72.68 489 72 489 C71.855625 489.61875 71.71125 490.2375 71.5625 490.875 C71 493 71 493 70 495 C69.34 495 68.68 495 68 495 C67.62875 495.804375 67.62875 495.804375 67.25 496.625 C65.01390094 500.87358821 63.03188725 504.31207517 59 507 C58.67 507.99 58.34 508.98 58 510 C54.89537674 513.62206046 52.83407252 515.58565093 48 516 C48 516.66 48 517.32 48 518 C45.79229195 518.08165496 43.58369575 518.13948488 41.375 518.1875 C39.53035156 518.23970703 39.53035156 518.23970703 37.6484375 518.29296875 C31.08195617 517.76568171 26.61947633 514.40950013 22 510 C20.625 507.1875 20.625 507.1875 20 505 C19.34 505 18.68 505 18 505 C15.42581035 500.09732879 15.70035209 495.2905631 15.69702148 489.89575195 C15.68858215 488.88030304 15.68014282 487.86485413 15.67144775 486.81863403 C15.64564781 483.45851159 15.63351343 480.09847749 15.62109375 476.73828125 C15.60490481 474.38957538 15.58772336 472.04087615 15.56959534 469.69218445 C15.52387077 463.49640013 15.48911489 457.30060644 15.45739746 451.10473633 C15.40561345 441.23527553 15.33959896 431.36591566 15.26918221 421.49657249 C15.24664932 418.07270006 15.23017432 414.64883941 15.21446228 411.22492981 C15.20102444 409.07874434 15.18740709 406.93255998 15.17358398 404.78637695 C15.16966393 403.39443871 15.16966393 403.39443871 15.16566467 401.97438049 C15.12769949 396.92318206 14.94847327 391.90285707 14.63320261 386.8607704 C13.93621173 375.69135701 13.88485734 364.5630549 13.9375 353.375 C13.94253345 351.48177204 13.94709304 349.58854276 13.95117188 347.6953125 C13.96201198 343.1301747 13.97917088 338.56510269 14 334 C12.8838607 334.00276538 11.76772141 334.00553076 10.6177597 334.00837994 C-16.54031358 334.07497849 -43.69837628 334.12427726 -70.85651398 334.15543652 C-83.98998415 334.1709054 -97.12340039 334.19199544 -110.25683594 334.22631836 C-121.70392693 334.25621993 -133.15097885 334.27557484 -144.59810781 334.28226548 C-150.65927053 334.28617643 -156.72032147 334.29536836 -162.78144836 334.31719017 C-168.48754846 334.33756715 -174.19349084 334.34383128 -179.89962387 334.33932304 C-181.99259676 334.34014769 -184.08557498 334.34610603 -186.17851639 334.35761642 C-189.03981735 334.37257933 -191.90052566 334.36893961 -194.76184082 334.36076355 C-195.58676482 334.36950207 -196.41168881 334.3782406 -197.26161051 334.38724393 C-202.79941642 334.34457947 -206.9101802 333.19714042 -212 331 C-212 330.34 -212 329.68 -212 329 C-212.57363281 328.89429688 -213.14726562 328.78859375 -213.73828125 328.6796875 C-222.36406293 326.08748368 -229.07234031 317.06332615 -234 310 C-239.05674275 299.53656691 -239.74572251 286.21639459 -237.34765625 274.9296875 C-236.41856023 272.44943976 -235.34352864 270.28161372 -234 268 C-233.50242188 267.13632812 -233.00484375 266.27265625 -232.4921875 265.3828125 C-228.19709962 258.33087751 -223.37853537 251.27678364 -218 245 C-217.34 245 -216.68 245 -216 245 C-215.773125 244.29875 -215.54625 243.5975 -215.3125 242.875 C-213.66158712 239.25871465 -211.7091165 236.91230024 -209 234 C-208.34 234 -207.68 234 -207 234 C-206.731875 233.195625 -206.46375 232.39125 -206.1875 231.5625 C-205.795625 230.716875 -205.40375 229.87125 -205 229 C-204.01 228.67 -203.02 228.34 -202 228 C-201.71125 227.278125 -201.4225 226.55625 -201.125 225.8125 C-199.64905025 222.12262563 -197.70713754 219.91017286 -195 217 C-194.34 217 -193.68 217 -193 217 C-192.773125 216.29875 -192.54625 215.5975 -192.3125 214.875 C-190.66158712 211.25871465 -188.7091165 208.91230024 -186 206 C-185.34 206 -184.68 206 -184 206 C-183.9175 205.443125 -183.835 204.88625 -183.75 204.3125 C-182.55218138 200.61922591 -180.07794018 198.03801647 -177.3125 195.375 C-175.73627162 193.91931103 -175.73627162 193.91931103 -175 191 C-174.34 191 -173.68 191 -173 191 C-172.773125 190.113125 -172.54625 189.22625 -172.3125 188.3125 C-170.37668467 183.42687083 -167.3092041 180.87280273 -163 178 C-162.02760158 176.24968284 -161.05692168 174.49826959 -160.109375 172.734375 C-158.52952026 170.26446125 -156.28492455 168.8038878 -154 167 C-153.28272222 165.35448038 -152.61674772 163.68577711 -152 162 C-150 159.1875 -150 159.1875 -148 157 C-147.34 157 -146.68 157 -146 157 C-146 156.34 -146 155.68 -146 155 C-145.01 154.34 -144.02 153.68 -143 153 C-142.71125 152.236875 -142.4225 151.47375 -142.125 150.6875 C-140.70058342 147.28472707 -138.63693313 145.57700283 -136 143 C-135.06187293 141.80825136 -134.14680709 140.59814523 -133.25 139.375 C-128.79217848 133.30035202 -124.18124423 127.15835758 -118.828125 121.84375 C-116.84530808 119.99451364 -116.84530808 119.99451364 -115.375 117.25 C-114.92125 116.5075 -114.4675 115.765 -114 115 C-113.34 115 -112.68 115 -112 115 C-111.87044922 114.16082031 -111.87044922 114.16082031 -111.73828125 113.3046875 C-110.7819768 110.31939848 -109.19945132 108.52142439 -107.1875 106.125 C-104.83697653 103.2825065 -102.58307446 100.50196301 -100.625 97.375 C-100.08875 96.59125 -99.5525 95.8075 -99 95 C-98.34 95 -97.68 95 -97 95 C-96.71125 94.4225 -96.4225 93.845 -96.125 93.25 C-95.75375 92.5075 -95.3825 91.765 -95 91 C-94.71125 90.29875 -94.4225 89.5975 -94.125 88.875 C-93 87 -93 87 -91.125 86.125 C-88.02698622 84.48487506 -86.88662448 81.91569237 -85 79 C-83.33333333 77.33333333 -81.66666667 75.66666667 -80 74 C-79.54625 73.236875 -79.0925 72.47375 -78.625 71.6875 C-76.61093585 68.35654775 -74.13170069 65.64742503 -71.5234375 62.76953125 C-69.93088749 61.0656479 -69.93088749 61.0656479 -69 59 C-68.34 59 -67.68 59 -67 59 C-66.731875 58.46375 -66.46375 57.9275 -66.1875 57.375 C-65.5996875 56.199375 -65.5996875 56.199375 -65 55 C-64.54625 53.96875 -64.0925 52.9375 -63.625 51.875 C-61.86842997 48.76722225 -61.07332693 48.43421924 -58 47 C-57.87367188 46.42378906 -57.74734375 45.84757812 -57.6171875 45.25390625 C-55.78670676 38.56917595 -48.8960855 32.75208298 -44 28 C-43.01 26.515 -43.01 26.515 -42 25 C-41.34 25 -40.68 25 -40 25 C-39.92523438 24.29488281 -39.85046875 23.58976562 -39.7734375 22.86328125 C-38.78382009 19.19969761 -37.03677767 17.10270699 -34.625 14.1875 C-33.83351563 13.21167969 -33.04203125 12.23585937 -32.2265625 11.23046875 C-31.12441406 10.12638672 -31.12441406 10.12638672 -30 9 C-29.01 9 -28.02 9 -27 9 C-26.67 7.68 -26.34 6.36 -26 5 C-25.34 5 -24.68 5 -24 5 C-23.67 4.01 -23.34 3.02 -23 2 C-15.66529774 -3.46901739 -8.28924539 -2.7630818 0 0 Z " fill="#31B278" transform="translate(434,191)"/>
<path d="M0 0 C0 0.66 0 1.32 0 2 C0.99 2 1.98 2 3 2 C4.27847818 3.44238564 5.54961317 4.89462937 6.73046875 6.41796875 C8.06917652 8.16831643 8.06917652 8.16831643 10.25 10.0625 C13.40848994 13.55939958 13.12588504 17.93893591 13.1386652 22.4722414 C13.14413964 23.56553267 13.14961409 24.65882393 13.15525442 25.78524524 C13.15623253 26.98076595 13.15721064 28.17628667 13.15821838 29.40803528 C13.16315636 30.68229219 13.16809434 31.95654909 13.17318195 33.26941985 C13.18674718 36.80400934 13.19417673 40.33858922 13.20060861 43.87319791 C13.20861965 47.68569969 13.22231501 51.49818153 13.23532104 55.31066895 C13.2570738 61.91530037 13.27522268 68.51993382 13.29092598 75.12458229 C13.31363553 84.67380286 13.34177687 94.22300135 13.37124526 103.77220317 C13.41890784 119.2650365 13.46217565 134.75787886 13.50268555 150.25073242 C13.54204725 165.30086978 13.5834751 180.35099911 13.62768555 195.40112305 C13.63040982 196.32876505 13.63313409 197.25640706 13.63594092 198.21215943 C13.64962051 202.86585252 13.66334076 207.51954549 13.67708123 212.1732384 C13.79102506 250.78214223 13.89783905 289.3910633 14 328 C13.34 328 12.68 328 12 328 C12 328.66 12 329.32 12 330 C12.66 330 13.32 330 14 330 C14 330.66 14 331.32 14 332 C-14.0152462 332.02332539 -42.03049095 332.0409774 -70.0457449 332.05181217 C-83.05271669 332.0569759 -96.05968246 332.06402004 -109.06665039 332.07543945 C-120.39904235 332.08538396 -131.73142995 332.09185287 -143.06382614 332.09408849 C-149.06827176 332.095396 -155.0727049 332.09848435 -161.07714653 332.10573006 C-166.72162969 332.1124866 -172.36609516 332.11461771 -178.01058197 332.11310768 C-180.08874927 332.11338418 -182.16691713 332.11539145 -184.24508095 332.11920547 C-187.06924749 332.12413702 -189.89334612 332.12300029 -192.71751404 332.12025452 C-193.55115508 332.12316736 -194.38479612 332.1260802 -195.24369901 332.12908131 C-200.88587879 332.11412121 -200.88587879 332.11412121 -202 331 C-203.34747084 330.76924918 -204.70377565 330.58846937 -206.0625 330.4375 C-207.361875 330.293125 -208.66125 330.14875 -210 330 C-210 329.34 -210 328.68 -210 328 C-211.134375 328 -212.26875 328 -213.4375 328 C-221.20945955 327.01134083 -226.28461844 320.0755089 -230.9375 314.3125 C-238.93993415 303.96419863 -239.10528437 290.51147988 -238 278 C-237.20262815 274.24710017 -235.94061011 271.29559232 -234 268 C-233.50242188 267.13632812 -233.00484375 266.27265625 -232.4921875 265.3828125 C-228.19709962 258.33087751 -223.37853537 251.27678364 -218 245 C-217.34 245 -216.68 245 -216 245 C-215.773125 244.29875 -215.54625 243.5975 -215.3125 242.875 C-213.66158712 239.25871465 -211.7091165 236.91230024 -209 234 C-208.34 234 -207.68 234 -207 234 C-206.731875 233.195625 -206.46375 232.39125 -206.1875 231.5625 C-205.795625 230.716875 -205.40375 229.87125 -205 229 C-204.01 228.67 -203.02 228.34 -202 228 C-201.71125 227.278125 -201.4225 226.55625 -201.125 225.8125 C-199.64905025 222.12262563 -197.70713754 219.91017286 -195 217 C-194.34 217 -193.68 217 -193 217 C-192.773125 216.29875 -192.54625 215.5975 -192.3125 214.875 C-190.66158712 211.25871465 -188.7091165 208.91230024 -186 206 C-185.34 206 -184.68 206 -184 206 C-183.9175 205.443125 -183.835 204.88625 -183.75 204.3125 C-182.55218138 200.61922591 -180.07794018 198.03801647 -177.3125 195.375 C-175.73627162 193.91931103 -175.73627162 193.91931103 -175 191 C-174.34 191 -173.68 191 -173 191 C-172.773125 190.113125 -172.54625 189.22625 -172.3125 188.3125 C-170.37668467 183.42687083 -167.3092041 180.87280273 -163 178 C-162.02760158 176.24968284 -161.05692168 174.49826959 -160.109375 172.734375 C-158.52952026 170.26446125 -156.28492455 168.8038878 -154 167 C-153.28272222 165.35448038 -152.61674772 163.68577711 -152 162 C-150 159.1875 -150 159.1875 -148 157 C-147.34 157 -146.68 157 -146 157 C-146 156.34 -146 155.68 -146 155 C-145.01 154.34 -144.02 153.68 -143 153 C-142.71125 152.236875 -142.4225 151.47375 -142.125 150.6875 C-140.70058342 147.28472707 -138.63693313 145.57700283 -136 143 C-135.06187293 141.80825136 -134.14680709 140.59814523 -133.25 139.375 C-128.79217848 133.30035202 -124.18124423 127.15835758 -118.828125 121.84375 C-116.84530808 119.99451364 -116.84530808 119.99451364 -115.375 117.25 C-114.92125 116.5075 -114.4675 115.765 -114 115 C-113.34 115 -112.68 115 -112 115 C-111.87044922 114.16082031 -111.87044922 114.16082031 -111.73828125 113.3046875 C-110.7819768 110.31939848 -109.19945132 108.52142439 -107.1875 106.125 C-104.83697653 103.2825065 -102.58307446 100.50196301 -100.625 97.375 C-100.08875 96.59125 -99.5525 95.8075 -99 95 C-98.34 95 -97.68 95 -97 95 C-96.71125 94.4225 -96.4225 93.845 -96.125 93.25 C-95.75375 92.5075 -95.3825 91.765 -95 91 C-94.71125 90.29875 -94.4225 89.5975 -94.125 88.875 C-93 87 -93 87 -91.125 86.125 C-88.02698622 84.48487506 -86.88662448 81.91569237 -85 79 C-83.33333333 77.33333333 -81.66666667 75.66666667 -80 74 C-79.54625 73.236875 -79.0925 72.47375 -78.625 71.6875 C-76.61093585 68.35654775 -74.13170069 65.64742503 -71.5234375 62.76953125 C-69.93088749 61.0656479 -69.93088749 61.0656479 -69 59 C-68.34 59 -67.68 59 -67 59 C-66.731875 58.46375 -66.46375 57.9275 -66.1875 57.375 C-65.5996875 56.199375 -65.5996875 56.199375 -65 55 C-64.54625 53.96875 -64.0925 52.9375 -63.625 51.875 C-61.86842997 48.76722225 -61.07332693 48.43421924 -58 47 C-57.87367188 46.42378906 -57.74734375 45.84757812 -57.6171875 45.25390625 C-55.78670676 38.56917595 -48.8960855 32.75208298 -44 28 C-43.01 26.515 -43.01 26.515 -42 25 C-41.34 25 -40.68 25 -40 25 C-39.92523438 24.29488281 -39.85046875 23.58976562 -39.7734375 22.86328125 C-38.78382009 19.19969761 -37.03677767 17.10270699 -34.625 14.1875 C-33.83351563 13.21167969 -33.04203125 12.23585937 -32.2265625 11.23046875 C-31.12441406 10.12638672 -31.12441406 10.12638672 -30 9 C-29.01 9 -28.02 9 -27 9 C-26.67 7.68 -26.34 6.36 -26 5 C-25.34 5 -24.68 5 -24 5 C-23.67 4.01 -23.34 3.02 -23 2 C-15.66529774 -3.46901739 -8.28924539 -2.7630818 0 0 Z " fill="#3ECE8D" transform="translate(434,191)"/>
<path d="M0 0 C0.33 0 0.66 0 1 0 C1.33 55.44 1.66 110.88 2 168 C2.66 167.67 3.32 167.34 4 167 C6.78390737 166.90411628 9.54270877 166.86989107 12.32681274 166.87974548 C13.19831825 166.87889106 14.06982375 166.87803663 14.96773851 166.87715632 C17.90510792 166.87550152 20.84242096 166.8810229 23.77978516 166.88647461 C25.87857563 166.88675651 27.9773662 166.8865987 30.07615662 166.8860321 C35.7886745 166.88574423 41.50117154 166.89163934 47.21368456 166.89860606 C53.17813036 166.90484127 59.14257659 166.90544353 65.10702515 166.90663147 C76.40819833 166.90974429 87.70936189 166.91795702 99.01053083 166.92798096 C111.87369274 166.93914362 124.7368551 166.94465293 137.60002065 166.94967639 C164.06668578 166.96013967 190.53334235 166.97773816 217 167 C217 167.33 217 167.66 217 168 C180.99530146 168.76961141 145.01280415 169.14711113 109 169 C109 169.66 109 170.32 109 171 C102.81969196 172.09233351 96.77780848 172.14491484 90.51171875 172.1328125 C89.41334183 172.13376923 88.3149649 172.13472595 87.18330383 172.13571167 C84.86609846 172.13639021 82.54889115 172.13455871 80.23168945 172.13037109 C76.70975403 172.12503373 73.18794703 172.13031927 69.66601562 172.13671875 C67.40624972 172.13605761 65.1464839 172.13477571 62.88671875 172.1328125 C61.84472824 172.13483673 60.80273773 172.13686096 59.72917175 172.13894653 C45.23011044 172.09313822 45.23011044 172.09313822 38.82719421 170.43850708 C36.53462528 169.88831504 35.28840608 170.42195971 33 171 C30.28054886 171.09454125 27.59328785 171.13958831 24.875 171.125 C24.14667969 171.12886719 23.41835938 171.13273438 22.66796875 171.13671875 C17.25342069 171.12671034 17.25342069 171.12671034 15 170 C13.37640567 169.92928596 11.74998868 169.91580134 10.125 169.9375 C9.26132812 169.94652344 8.39765625 169.95554687 7.5078125 169.96484375 C6.68023437 169.97644531 5.85265625 169.98804688 5 170 C3.68 170 2.36 170 1 170 C-0.44583483 167.10833034 -0.12266289 164.61360498 -0.12025452 161.38156128 C-0.12153615 160.34994281 -0.12153615 160.34994281 -0.12284368 159.29748356 C-0.12449705 156.98198768 -0.11897945 154.66656348 -0.11352539 152.35107422 C-0.11324346 150.69562787 -0.11340136 149.04018139 -0.1139679 147.38473511 C-0.11425565 142.88085407 -0.10836248 138.37699948 -0.10139394 133.8731246 C-0.09515673 129.16990384 -0.09455631 124.46668251 -0.09336853 119.76345825 C-0.0902563 110.85286161 -0.08204436 101.9422772 -0.07201904 93.03168595 C-0.06085455 82.8891498 -0.0553466 72.74661309 -0.05032361 62.60407233 C-0.03986167 41.73604139 -0.02226431 20.86802146 0 0 Z " fill="#287350" transform="translate(447,208)"/>
<path d="M0 0 C2.97 0.495 2.97 0.495 6 1 C6 1.99 6 2.98 6 4 C11.79887428 4.83289714 17.40896372 5.14558823 23.26266479 5.13803101 C24.16238703 5.14085229 25.06210926 5.14367357 25.98909581 5.14658034 C28.98606625 5.15487424 31.98299951 5.15626004 34.97998047 5.15771484 C37.13552453 5.16238655 39.2910676 5.1675307 41.4466095 5.17311096 C46.07861106 5.18436321 50.7106063 5.19281086 55.34261703 5.19923019 C62.66130714 5.20992644 69.9799513 5.23017224 77.2986145 5.25234985 C98.10628168 5.31423061 118.9139451 5.36838244 139.72167969 5.40136719 C151.22082103 5.41967553 162.71988442 5.44855534 174.21896851 5.4893719 C180.30438389 5.51048977 186.38970091 5.52590608 192.47515488 5.52817917 C198.18959777 5.53031655 203.90383517 5.54609203 209.61821556 5.57256889 C211.72014548 5.57979576 213.82210021 5.58184661 215.92403984 5.57846642 C218.782686 5.57460197 221.64066588 5.58892687 224.49923706 5.60800171 C225.76048961 5.59970717 225.76048961 5.59970717 227.04722202 5.59124506 C229.35604668 5.61803246 229.35604668 5.61803246 233 6 C236.63776813 11.45665219 235.09183786 18.33770878 234.49636841 24.66137695 C234.00264071 30.44806436 233.85808096 36.17535922 233.87060547 41.98046875 C233.86885315 43.00704086 233.86710083 44.03361298 233.86529541 45.09129333 C233.86092778 48.45671325 233.86380218 51.82207962 233.8671875 55.1875 C233.86651177 57.57275401 233.86553952 59.95800794 233.86428833 62.34326172 C233.86281715 67.34619807 233.86494268 72.34911652 233.86962891 77.35205078 C233.87525236 83.65162617 233.87200454 89.95115861 233.86617661 96.25073242 C233.84492171 123.51614871 233.9803646 150.75151724 235 178 C234.690625 177.360625 234.38125 176.72125 234.0625 176.0625 C233.1654837 174.06389179 233.1654837 174.06389179 232 173 C231.89476654 171.64939734 231.85763993 170.29340134 231.84851074 168.93873596 C231.84016708 168.06305969 231.83182343 167.18738342 231.82322693 166.28517151 C231.81904251 165.31651657 231.81485809 164.34786163 231.81054688 163.34985352 C231.79810692 161.8275563 231.79810692 161.8275563 231.78541565 160.27450562 C231.76796081 158.05918026 231.75280909 155.84383588 231.73963928 153.62848091 C231.71862217 150.10749139 231.69158704 146.58659393 231.66296387 143.06565857 C231.60312983 135.56464165 231.55121788 128.06357995 231.5 120.5625 C231.4405101 111.92573628 231.37770152 103.28901527 231.30812073 94.65232658 C231.2818741 91.21074162 231.26084637 87.76915182 231.2401123 84.32752991 C231.22346988 82.16830255 231.20659478 80.00907697 231.18945312 77.84985352 C231.18526871 76.9156105 231.18108429 75.98136749 231.17677307 75.01881409 C231.1309989 69.95177604 230.9485568 64.91440101 230.63212919 59.85647672 C229.93553827 48.68859267 229.88486469 37.56149347 229.9375 26.375 C229.94253345 24.48177204 229.94709304 22.58854276 229.95117188 20.6953125 C229.96201198 16.1301747 229.97917088 11.56510269 230 7 C228.32579105 7.00414807 228.32579105 7.00414807 226.6177597 7.00837994 C199.45968642 7.07497849 172.30162372 7.12427726 145.14348602 7.15543652 C132.01001585 7.1709054 118.87659961 7.19199544 105.74316406 7.22631836 C94.29607307 7.25621993 82.84902115 7.27557484 71.40189219 7.28226548 C65.34072947 7.28617643 59.27967853 7.29536836 53.21855164 7.31719017 C47.51245154 7.33756715 41.80650916 7.34383128 36.10037613 7.33932304 C34.00740324 7.34014769 31.91442502 7.34610603 29.82148361 7.35761642 C26.96018265 7.37257933 24.09947434 7.36893961 21.23815918 7.36076355 C20.41323518 7.36950207 19.58831119 7.3782406 18.73838949 7.38724393 C13.20058358 7.34457947 9.0898198 6.19714042 4 4 C4 3.34 4 2.68 4 2 C2.68 1.67 1.36 1.34 0 1 C0 0.67 0 0.34 0 0 Z " fill="#245F45" transform="translate(218,518)"/>
<path d="M0 0 C1.01553955 -0.00014603 2.0310791 -0.00029205 3.07739258 -0.0004425 C6.41034128 0.00025021 9.74323302 0.00801243 13.07617188 0.01586914 C15.39644337 0.0177356 17.71671527 0.01915843 20.0369873 0.02015686 C26.12623189 0.02396408 32.21545239 0.03377898 38.3046875 0.04486084 C44.52538731 0.05511363 50.74609104 0.05966275 56.96679688 0.06469727 C69.15951575 0.07540291 81.35221681 0.09245769 93.54492188 0.11352539 C93.54492188 0.44352539 93.54492188 0.77352539 93.54492188 1.11352539 C57.54022333 1.8831368 21.55772603 2.26063652 -14.45507812 2.11352539 C-14.45507812 2.77352539 -14.45507812 3.43352539 -14.45507812 4.11352539 C-19.66039115 4.97159105 -24.67239578 5.27362134 -29.94335938 5.28149414 C-31.11997383 5.28648674 -31.11997383 5.28648674 -32.32035828 5.2915802 C-33.96494973 5.29661104 -35.60955125 5.29898972 -37.25415039 5.29882812 C-39.77767325 5.30103422 -42.30077191 5.31928297 -44.82421875 5.33813477 C-46.4264308 5.34106554 -48.02864492 5.34305245 -49.63085938 5.34399414 C-50.38603348 5.35117966 -51.14120758 5.35836517 -51.91926575 5.36576843 C-57.22622692 5.34237659 -57.22622692 5.34237659 -59.45507812 3.11352539 C-57.35807259 1.01651986 -52.78909948 1.87888944 -49.88867188 1.83227539 C-49.02121841 1.81386597 -48.15376495 1.79545654 -47.26002502 1.77648926 C-44.47094727 1.71755484 -41.68180477 1.66489767 -38.89257812 1.61352539 C-36.1283535 1.56192975 -33.36420565 1.50881707 -30.60011292 1.45056152 C-28.87829832 1.41430048 -27.15639934 1.38178433 -25.43443298 1.3536377 C-24.63743484 1.33692017 -23.84043671 1.32020264 -23.01928711 1.30297852 C-21.9845652 1.2841864 -21.9845652 1.2841864 -20.92893982 1.26501465 C-18.88581794 1.13990215 -16.8507198 0.89055386 -14.82325745 0.60877991 C-9.87905125 -0.02953479 -4.9788401 -0.01896792 0 0 Z " fill="#2E8E63" transform="translate(570.455078125,374.886474609375)"/>
<path d="M0 0 C2.95898438 2.74267578 2.95898438 2.74267578 3.328125 5.05859375 C3.17862881 9.61075289 2.91606558 14.12610769 2.49246216 18.66137695 C2.00186905 24.44771826 1.85808221 30.17593872 1.87060547 35.98046875 C1.86885315 37.00704086 1.86710083 38.03361298 1.86529541 39.09129333 C1.86092778 42.45671325 1.86380218 45.82207962 1.8671875 49.1875 C1.86651177 51.57275401 1.86553952 53.95800794 1.86428833 56.34326172 C1.86281715 61.34619807 1.86494268 66.34911652 1.86962891 71.35205078 C1.87525236 77.65162617 1.87200454 83.95115861 1.86617661 90.25073242 C1.84492171 117.51614871 1.9803646 144.75151724 3 172 C2.5359375 171.0409375 2.5359375 171.0409375 2.0625 170.0625 C1.1654837 168.06389179 1.1654837 168.06389179 0 167 C-0.096937 164.84840274 -0.12186783 162.69355889 -0.12025452 160.53977966 C-0.12153615 159.51556816 -0.12153615 159.51556816 -0.12284368 158.47066551 C-0.12450043 156.16588309 -0.11897397 153.86117228 -0.11352539 151.55639648 C-0.11324353 149.91094972 -0.11340122 148.26550284 -0.1139679 146.62005615 C-0.11425593 142.13884241 -0.10835821 137.65765519 -0.10139394 133.17644763 C-0.09516142 128.49857895 -0.09455668 123.82070972 -0.09336853 119.14283752 C-0.09025491 110.27824832 -0.08204111 101.41367138 -0.07201904 92.54908758 C-0.06085885 82.45977798 -0.05534769 72.3704678 -0.05032361 62.28115356 C-0.03985852 41.52076218 -0.02225849 20.76038186 0 0 Z " fill="#2B7C58" transform="translate(450,524)"/>
<path d="M0 0 C0.99 0.495 0.99 0.495 2 1 C1.99347412 1.6707959 1.98694824 2.3415918 1.98022461 3.03271484 C1.93949439 10.45595875 2.24797741 17.8167811 2.73242188 25.22265625 C3.03211735 30.72906111 2.90254293 36.1177183 2.51367188 41.61450195 C1.87913931 51.49691025 1.87290452 61.35487635 1.90234375 71.25390625 C1.90421476 73.13532981 1.90563542 75.01675387 1.90663147 76.8981781 C1.91040297 81.78882249 1.92018568 86.67943597 1.93133545 91.57006836 C1.94166669 96.58511945 1.94615388 101.60017566 1.95117188 106.61523438 C1.96181421 116.41016964 1.97882393 126.20508223 2 136 C1.67 136 1.34 136 1 136 C-0.24902282 108.73998766 -0.11996258 81.47962026 -0.06866455 54.1973877 C-0.05827023 48.06844433 -0.0538331 41.93949659 -0.04882812 35.81054688 C-0.03823579 23.87368675 -0.02126336 11.93684557 0 0 Z " fill="#36A271" transform="translate(451,555)"/>
<path d="M0 0 C0.33 0 0.66 0 1 0 C1.01030746 1.05994675 1.02061493 2.11989349 1.03123474 3.21195984 C1.16283764 16.70384552 1.29864013 30.19568709 1.4375 43.6875 C1.44852123 44.75859261 1.45954247 45.82968521 1.47089767 46.93323517 C1.81550805 80.29291743 2.24932019 113.64664429 3 147 C2.34 147 1.68 147 1 147 C1 146.34 1 145.68 1 145 C0.34 145 -0.32 145 -1 145 C-1 144.34 -1 143.68 -1 143 C-0.34 143 0.32 143 1 143 C0.83734146 141.95432861 0.67468292 140.90865723 0.50709534 139.83129883 C-0.24056967 133.79990881 -0.13121214 127.76777933 -0.11352539 121.69921875 C-0.11367142 120.38131851 -0.11381744 119.06341827 -0.1139679 117.70558167 C-0.11425337 114.11318092 -0.10839709 110.52081395 -0.10139394 106.92842102 C-0.09511875 103.16614964 -0.09455332 99.40387737 -0.09336853 95.64160156 C-0.09026746 88.52679273 -0.08207064 81.41199938 -0.07201904 74.29719734 C-0.06081981 66.19317783 -0.05533787 58.08915755 -0.05032361 49.98513222 C-0.03988694 33.32341244 -0.02231131 16.6617082 0 0 Z " fill="#35BD7F" transform="translate(447,376)"/>
<path d="M0 0 C1.27039124 0.00141495 2.54078247 0.0028299 3.84967041 0.00428772 C7.18354301 0.0088962 10.51734347 0.01783799 13.85119629 0.0289917 C17.27058295 0.03932743 20.68997714 0.04381106 24.109375 0.04882812 C30.78647778 0.05978832 37.46354724 0.07647397 44.140625 0.09765625 C44.140625 0.75765625 44.140625 1.41765625 44.140625 2.09765625 C45.130625 2.59265625 45.130625 2.59265625 46.140625 3.09765625 C22.380625 3.09765625 -1.379375 3.09765625 -25.859375 3.09765625 C-25.859375 2.43765625 -25.859375 1.77765625 -25.859375 1.09765625 C-17.2186352 0.22735304 -8.68087295 -0.0371284 0 0 Z " fill="#3DB981" transform="translate(621.859375,375.90234375)"/>
<path d="M0 0 C0.33 0 0.66 0 1 0 C1.57143452 4.85719345 -0.07456966 7.20484713 -3 11 C-3.804375 11.78375 -4.60875 12.5675 -5.4375 13.375 C-8.1808546 16.18526569 -9.90580789 19.00685259 -11.7890625 22.42578125 C-12.18867187 22.94527344 -12.58828125 23.46476563 -13 24 C-13.99 24 -14.98 24 -16 24 C-16.2475 24.61875 -16.495 25.2375 -16.75 25.875 C-18.20628639 28.35068687 -19.37812506 28.95125002 -22 30 C-20.49036332 25.14369887 -17.70435957 22.07565409 -14.375 18.375 C-9.71163958 13.0841903 -5.45729281 7.70675199 -1.42578125 1.9140625 C-0.95527344 1.28242187 -0.48476563 0.65078125 0 0 Z " fill="#112F22" transform="translate(537,642)"/>
<path d="M0 0 C0.2079646 10.60619469 0.2079646 10.60619469 -3.4375 14.8125 C-6 17 -6 17 -8 17 C-8.309375 17.61875 -8.61875 18.2375 -8.9375 18.875 C-9.625 20.25 -10.3125 21.625 -11 23 C-12.32 22.67 -13.64 22.34 -15 22 C-14.38125 21.113125 -13.7625 20.22625 -13.125 19.3125 C-10.97068623 16.21247976 -10.97068623 16.21247976 -10 13.3125 C-8.80044893 10.53853815 -7.38062958 9.78547219 -5 8 C-3.62533375 5.52363988 -3.62533375 5.52363988 -3 3 C-3.33 2.34 -3.66 1.68 -4 1 C-2 0 -2 0 0 0 Z " fill="#45C38B" transform="translate(699,431)"/>
<path d="M0 0 C0.66 0 1.32 0 2 0 C1.39085487 3.26327748 0.28221323 5.26664384 -1.75 7.875 C-2.28753906 8.56980469 -2.82507813 9.26460937 -3.37890625 9.98046875 C-4.79066879 11.73921871 -6.22686912 13.46937188 -7.6875 15.1875 C-9.75622027 17.70351114 -11.36425328 20.19586276 -13 23 C-13.66 23.66 -14.32 24.32 -15 25 C-17.125 24.625 -17.125 24.625 -19 24 C-15.375 17.25 -15.375 17.25 -12 15 C-11.3162955 13.67532254 -10.65035814 12.34136367 -10 11 C-8.5 9.25 -8.5 9.25 -7 8 C-6.34 8 -5.68 8 -5 8 C-4.731875 7.4225 -4.46375 6.845 -4.1875 6.25 C-2.97070811 3.94449957 -1.69666121 1.97943808 0 0 Z " fill="#40A97B" transform="translate(643,505)"/>
<path d="M0 0 C0 0.66 0 1.32 0 2 C0.99 2.33 1.98 2.66 3 3 C-3.93 2.67 -10.86 2.34 -18 2 C-18.33 2.99 -18.66 3.98 -19 5 C-20.32 4.67 -21.64 4.34 -23 4 C-23 4.66 -23 5.32 -23 6 C-23.99 5.67 -24.98 5.34 -26 5 C-25.34 5 -24.68 5 -24 5 C-23.67 4.01 -23.34 3.02 -23 2 C-15.66529774 -3.46901739 -8.28924539 -2.7630818 0 0 Z " fill="#38936B" transform="translate(434,191)"/>
<path d="M0 0 C0.33 0 0.66 0 1 0 C1.25532751 3.06393013 1.21861333 4.63233212 -0.375 7.3125 C-0.91125 7.869375 -1.4475 8.42625 -2 9 C-2.66 9 -3.32 9 -4 9 C-4.09796875 9.56460938 -4.1959375 10.12921875 -4.296875 10.7109375 C-5.15563773 13.50668727 -6.46898865 15.30968524 -8.25 17.625 C-8.83265625 18.40101563 -9.4153125 19.17703125 -10.015625 19.9765625 C-12.21439949 22.21861995 -14.0353154 23.04925632 -17 24 C-15.97663873 20.24767536 -14.3181829 18.17865465 -11.5625 15.5625 C-8.47673222 12.6300623 -6.77279508 9.90014917 -5 6 C-3.4375 4.3125 -3.4375 4.3125 -2 3 C-1.34 2.01 -0.68 1.02 0 0 Z " fill="#113022" transform="translate(639,514)"/>
<path d="M0 0 C0.99 0.33 1.98 0.66 3 1 C2.67 1.99 2.34 2.98 2 4 C1.34 4 0.68 4 0 4 C-0.28875 4.763125 -0.5775 5.52625 -0.875 6.3125 C-2 9 -2 9 -4 12 C-4.66 12 -5.32 12 -6 12 C-6.185625 12.66 -6.37125 13.32 -6.5625 14 C-8.60808774 18.26905268 -11.57184643 21.74163706 -15 25 C-15.66 25 -16.32 25 -17 25 C-16.67 23.35 -16.34 21.7 -16 20 C-15.01 20 -14.02 20 -13 20 C-13 19.34 -13 18.68 -13 18 C-12.34 18 -11.68 18 -11 18 C-11 17.34 -11 16.68 -11 16 C-10.34 16 -9.68 16 -9 16 C-9 14.35 -9 12.7 -9 11 C-8.01 11 -7.02 11 -6 11 C-6 10.01 -6 9.02 -6 8 C-5.34 8 -4.68 8 -4 8 C-4 7.34 -4 6.68 -4 6 C-3.34 6 -2.68 6 -2 6 C-1.34 4.02 -0.68 2.04 0 0 Z " fill="#0D261C" transform="translate(341,274)"/>
<path d="M0 0 C0.33 0.99 0.66 1.98 1 3 C-0.44140625 5.19921875 -0.44140625 5.19921875 -2.5625 7.6875 C-3.29855469 8.56921875 -4.03460937 9.4509375 -4.79296875 10.359375 C-5.52128906 11.23078125 -6.24960937 12.1021875 -7 13 C-8.13700079 14.46996198 -9.26350822 15.94815617 -10.375 17.4375 C-10.83648438 18.05496094 -11.29796875 18.67242188 -11.7734375 19.30859375 C-12.88764825 20.84506908 -13.94720562 22.42080843 -15 24 C-15.66 24 -16.32 24 -17 24 C-17 22.68 -17 21.36 -17 20 C-15.69417053 18.96434215 -14.35622245 17.96873032 -13 17 C-11.97388051 15.34928604 -10.97691857 13.68029994 -10 12 C-9.11862748 10.9460696 -8.22208988 9.90467619 -7.3125 8.875 C-4.68662068 6.22532961 -4.68662068 6.22532961 -5 3 C-2.5 1.3125 -2.5 1.3125 0 0 Z " fill="#40B180" transform="translate(525,654)"/>
<path d="M0 0 C1.40167793 2.80335585 0.96536981 4.0349356 0 7 C-3.64021985 11.4123877 -8.11862456 14.15354038 -13 17 C-11.55619987 12.69998657 -9.39167267 9.72376262 -6.5 6.25 C-5.7059375 5.28578125 -4.911875 4.3215625 -4.09375 3.328125 C-2 1 -2 1 0 0 Z " fill="#183B2A" transform="translate(617,543)"/>
<path d="M0 0 C0.99 0.33 1.98 0.66 3 1 C2.45730469 1.59167969 1.91460937 2.18335938 1.35546875 2.79296875 C0.64003906 3.58316406 -0.07539063 4.37335938 -0.8125 5.1875 C-1.87404297 6.35345703 -1.87404297 6.35345703 -2.95703125 7.54296875 C-5.07696039 9.95591086 -5.07696039 9.95591086 -6.63671875 12.80078125 C-7.31154297 13.88939453 -7.31154297 13.88939453 -8 15 C-8.66 15 -9.32 15 -10 15 C-10.226875 15.53625 -10.45375 16.0725 -10.6875 16.625 C-12.45570089 19.82460161 -14.53670203 22.29037223 -17 25 C-17.66 25 -18.32 25 -19 25 C-17.79618552 22.50638429 -16.54571278 20.31856917 -15 18 C-14.34 18 -13.68 18 -13 18 C-13 17.01 -13 16.02 -13 15 C-12.34 15 -11.68 15 -11 15 C-10.73058594 14.42765625 -10.46117187 13.8553125 -10.18359375 13.265625 C-8.96614361 10.9351924 -7.60908267 8.87507542 -6.0625 6.75 C-5.55847656 6.04359375 -5.05445313 5.3371875 -4.53515625 4.609375 C-4.02855469 4.07828125 -3.52195313 3.5471875 -3 3 C-2.01 3 -1.02 3 0 3 C0 2.01 0 1.02 0 0 Z " fill="#0E2C1E" transform="translate(226,421)"/>
<path d="M0 0 C0.66 0 1.32 0 2 0 C2 1.32 2 2.64 2 4 C1.34 4 0.68 4 0 4 C-0.23847656 4.53109375 -0.47695313 5.0621875 -0.72265625 5.609375 C-2.36727489 8.68737686 -4.36595814 11.45224718 -6.4375 14.25 C-6.83259766 14.80429687 -7.22769531 15.35859375 -7.63476562 15.9296875 C-8.68208439 17.34470053 -9.83546276 18.67977597 -11 20 C-11.99 20 -12.98 20 -14 20 C-13.52619056 15.73571504 -10.96102273 13.88509907 -8 11 C-8 10.34 -8 9.68 -8 9 C-7.34 9 -6.68 9 -6 9 C-5.896875 8.360625 -5.79375 7.72125 -5.6875 7.0625 C-5.460625 6.381875 -5.23375 5.70125 -5 5 C-4.01 4.67 -3.02 4.34 -2 4 C-0.79117904 1.99983534 -0.79117904 1.99983534 0 0 Z " fill="#46C08A" transform="translate(616,538)"/>
<path d="M0 0 C6.78532545 2.3263973 10.1992359 5.74812511 13.3984375 12 C14.11434828 14.38017091 13.7974855 15.68004218 13 18 C11 15 11 15 11 13 C10.01 12.67 9.02 12.34 8 12 C6.875 10.0625 6.875 10.0625 6 8 C5.67 7.34 5.34 6.68 5 6 C4.01 6 3.02 6 2 6 C2 5.34 2 4.68 2 4 C1.34 4 0.68 4 0 4 C0 2.68 0 1.36 0 0 Z " fill="#40B17F" transform="translate(683,386)"/>
<path d="M0 0 C0.33 0 0.66 0 1 0 C1.33 17.49 1.66 34.98 2 53 C1.34 53 0.68 53 0 53 C0 52.34 0 51.68 0 51 C-0.66 51 -1.32 51 -2 51 C-2 50.34 -2 49.68 -2 49 C-1.34 49 -0.68 49 0 49 C0 32.83 0 16.66 0 0 Z " fill="#31B47A" transform="translate(448,470)"/>
<path d="M0 0 C0 0.99 0 1.98 0 3 C0.3062434 4.33981486 0.63451555 5.67511887 1 7 C0.37351562 7.29132813 -0.25296875 7.58265625 -0.8984375 7.8828125 C-6.29371523 10.47875022 -6.29371523 10.47875022 -9.5625 15.3125 C-9.7790625 16.6428125 -9.7790625 16.6428125 -10 18 C-10.99 17.67 -11.98 17.34 -13 17 C-13 17.99 -13 18.98 -13 20 C-15.5 21.6875 -15.5 21.6875 -18 23 C-17.34 21.35 -16.68 19.7 -16 18 C-15.34 18 -14.68 18 -14 18 C-13.566875 17.13375 -13.566875 17.13375 -13.125 16.25 C-12.75375 15.5075 -12.3825 14.765 -12 14 C-11.71125 13.29875 -11.4225 12.5975 -11.125 11.875 C-10 10 -10 10 -8.125 9.125 C-5.02219169 7.48233678 -3.83247447 4.93195915 -2 2 C-1.34 1.34 -0.68 0.68 0 0 Z " fill="#42B583" transform="translate(351,268)"/>
<path d="M0 0 C0.33 0.99 0.66 1.98 1 3 C-0.32 3.33 -1.64 3.66 -3 4 C-2.690625 4.86625 -2.38125 5.7325 -2.0625 6.625 C-2 10 -2 10 -3.3515625 11.734375 C-6.84442434 14.85565579 -8.12501077 16 -13 16 C-11.44166808 12.5442173 -9.39989555 9.72724126 -7.0625 6.75 C-6.37285156 5.85796875 -5.68320312 4.9659375 -4.97265625 4.046875 C-3.99619141 3.03367188 -3.99619141 3.03367188 -3 2 C-2.01 2 -1.02 2 0 2 C0 1.34 0 0.68 0 0 Z " fill="#3DA979" transform="translate(407,198)"/>
<path d="M0 0 C0 3.44360632 -0.79591532 4.74795392 -2.5 7.6875 C-2.9640625 8.49574219 -3.428125 9.30398438 -3.90625 10.13671875 C-4.2671875 10.75160156 -4.628125 11.36648438 -5 12 C-5.99 12 -6.98 12 -8 12 C-8 13.32 -8 14.64 -8 16 C-8.99 16 -9.98 16 -11 16 C-11 16.66 -11 17.32 -11 18 C-11.66 18 -12.32 18 -13 18 C-13.33 19.65 -13.66 21.3 -14 23 C-14.99 23 -15.98 23 -17 23 C-17 24.32 -17 25.64 -17 27 C-17.66 27 -18.32 27 -19 27 C-18.67 25.35 -18.34 23.7 -18 22 C-17.34 22 -16.68 22 -16 22 C-15.773125 21.113125 -15.54625 20.22625 -15.3125 19.3125 C-13.37668467 14.42687083 -10.3092041 11.87280273 -6 9 C-4.86429211 7.34806416 -4.86429211 7.34806416 -3.9375 5.5 C-2.7384658 3.22713195 -1.84944218 1.84944218 0 0 Z " fill="#39936A" transform="translate(277,360)"/>
<path d="M0 0 C0.33 0 0.66 0 1 0 C1.31479476 4.01363325 1.44548142 6.29995777 -0.75 9.75 C-2.76281279 11.76281279 -4.57448997 13.51339708 -7 15 C-7.99 15 -8.98 15 -10 15 C-10 13.68 -10 12.36 -10 11 C-9.1028125 10.6596875 -9.1028125 10.6596875 -8.1875 10.3125 C-4.87221937 8.32333162 -3.68629411 5.37258822 -2 2 C-1.34 2 -0.68 2 0 2 C0 1.34 0 0.68 0 0 Z " fill="#3CAB7A" transform="translate(668,472)"/>
<path d="M0 0 C0 3 0 3 -1 6 C-1.66 6 -2.32 6 -3 6 C-3 6.99 -3 7.98 -3 9 C-6.67180038 12.6121849 -10.83694575 14.30968203 -15.9375 14.48828125 C-17.62569995 14.4555642 -19.3135833 14.39669131 -21 14.3125 C-21.87011719 14.28994141 -22.74023438 14.26738281 -23.63671875 14.24414062 C-25.75857251 14.18584794 -27.87952629 14.09619084 -30 14 C-30 13.01 -30 12.02 -30 11 C-29.48953125 11.15339844 -28.9790625 11.30679688 -28.453125 11.46484375 C-25.2250662 12.16905403 -22.04581999 12.34888204 -18.75 12.5625 C-17.48671875 12.64628906 -16.2234375 12.73007812 -14.921875 12.81640625 C-13.95765625 12.87699219 -12.9934375 12.93757812 -12 13 C-12 12.34 -12 11.68 -12 11 C-11.236875 10.7525 -10.47375 10.505 -9.6875 10.25 C-6.73819971 8.87823242 -5.82568981 7.6081283 -4 5 C-3.34 5 -2.68 5 -2 5 C-1.855625 4.360625 -1.71125 3.72125 -1.5625 3.0625 C-1 1 -1 1 0 0 Z " fill="#1B5037" transform="translate(494,696)"/>
<path d="M0 0 C1.21618469 3.76257138 1.0636108 7.32203334 1 11.25 C0.9430974 16.59431837 1.13806137 21.72062592 2 27 C2.66 27 3.32 27 4 27 C5 33.625 5 33.625 5 37 C-2.00215048 26.99692789 -1.9839472 14.76115072 -1 3 C-0.67 2.01 -0.34 1.02 0 0 Z " fill="#3A936B" transform="translate(197,466)"/>
<path d="M0 0 C0 4.95074204 -2.33546981 8.90463618 -5 13 C-8.01837899 15.88563957 -11.26954905 18.13477452 -15 20 C-13.59808647 17.00745382 -11.96632511 14.4045389 -10 11.75 C-9.484375 11.04359375 -8.96875 10.3371875 -8.4375 9.609375 C-7.963125 9.07828125 -7.48875 8.5471875 -7 8 C-6.34 8 -5.68 8 -5 8 C-4.731875 7.236875 -4.46375 6.47375 -4.1875 5.6875 C-3.05575888 3.12619116 -2.08776599 1.80307062 0 0 Z " fill="#3A986D" transform="translate(223,428)"/>
<path d="M0 0 C0.33 0.66 0.66 1.32 1 2 C0.06833174 4.03273074 -0.9349985 6.03384339 -2 8 C-2.33 8.66 -2.66 9.32 -3 10 C-3.66 10 -4.32 10 -5 10 C-5 10.66 -5 11.32 -5 12 C-5.99 12 -6.98 12 -8 12 C-8.33 13.32 -8.66 14.64 -9 16 C-10.32 16.33 -11.64 16.66 -13 17 C-11.2703384 12.79046213 -8.31793255 9.64856424 -5.375 6.25 C-4.859375 5.64800781 -4.34375 5.04601562 -3.8125 4.42578125 C-2.54530865 2.94739134 -1.27314225 1.47326829 0 0 Z " fill="#3D9F74" transform="translate(314,314)"/>
<path d="M0 0 C0.5534764 2.07553648 1 3.84365964 1 6 C-0.98 6.66 -2.96 7.32 -5 8 C-5 8.99 -5 9.98 -5 11 C-5.99 11.495 -5.99 11.495 -7 12 C-7.72159424 13.64363134 -8.39351421 15.31050386 -9 17 C-10.32 16.67 -11.64 16.34 -13 16 C-12.18595703 15.00419922 -12.18595703 15.00419922 -11.35546875 13.98828125 C-10.64003906 13.10527344 -9.92460938 12.22226562 -9.1875 11.3125 C-8.47980469 10.44238281 -7.77210938 9.57226562 -7.04296875 8.67578125 C-4.96009296 6.05688574 -4.96009296 6.05688574 -3.36328125 3.23046875 C-2 1 -2 1 0 0 Z " fill="#1A4733" transform="translate(591,575)"/>
<path d="M0 0 C7.92 0 15.84 0 24 0 C23.67 0.66 23.34 1.32 23 2 C15.33772573 3.3290521 7.66533203 3.12471012 0 2 C0 1.34 0 0.68 0 0 Z " fill="#289160" transform="translate(488,377)"/>
<path d="M0 0 C0.75 1.6875 0.75 1.6875 1 4 C-0.75 6.75 -0.75 6.75 -3 9 C-3.99 9 -4.98 9 -6 9 C-7.07525194 11.65228812 -8.09456151 14.28368454 -9 17 C-12.0625 18.1875 -12.0625 18.1875 -15 19 C-14.59007812 18.45730469 -14.18015625 17.91460937 -13.7578125 17.35546875 C-13.21898437 16.64003906 -12.68015625 15.92460937 -12.125 15.1875 C-11.59132813 14.47980469 -11.05765625 13.77210938 -10.5078125 13.04296875 C-9.29185219 11.39543703 -8.13583859 9.70375789 -7 8 C-6.34 8 -5.68 8 -5 8 C-4.731875 7.4225 -4.46375 6.845 -4.1875 6.25 C-2.98280141 3.9674132 -1.59201885 2.0262058 0 0 Z " fill="#49BD8A" transform="translate(372,242)"/>
<path d="M0 0 C0.66 0 1.32 0 2 0 C1.5355261 5.03338043 -0.89936037 7.99032433 -3.9375 11.8125 C-4.39318359 12.40998047 -4.84886719 13.00746094 -5.31835938 13.62304688 C-6.49144268 15.12589884 -7.74056947 16.5687337 -9 18 C-9.66 18 -10.32 18 -11 18 C-10.67 16.35 -10.34 14.7 -10 13 C-9.01 13 -8.02 13 -7 13 C-6.71125 12.2575 -6.4225 11.515 -6.125 10.75 C-5.17697356 8.43260203 -4.15154089 6.22082885 -3 4 C-2.34 4 -1.68 4 -1 4 C-0.67 2.68 -0.34 1.36 0 0 Z " fill="#43B683" transform="translate(538,636)"/>
<path d="M0 0 C1.32 0 2.64 0 4 0 C3.37606349 3.76119476 1.65226285 6.18960042 -0.5625 9.25 C-1.20316406 10.14203125 -1.84382812 11.0340625 -2.50390625 11.953125 C-3.24447266 12.96632813 -3.24447266 12.96632813 -4 14 C-5.32 13.67 -6.64 13.34 -8 13 C-7.525625 12.566875 -7.05125 12.13375 -6.5625 11.6875 C-4.76313043 9.97690387 -4.76313043 9.97690387 -4 7 C-3.34 7 -2.68 7 -2 7 C-2 6.01 -2 5.02 -2 4 C-1.34 4 -0.68 4 0 4 C0 2.68 0 1.36 0 0 Z " fill="#48C48A" transform="translate(654,488)"/>
<path d="M0 0 C0.66 0 1.32 0 2 0 C2 1.32 2 2.64 2 4 C1.34 4 0.68 4 0 4 C-0.4021875 5.1446875 -0.4021875 5.1446875 -0.8125 6.3125 C-1.95134505 8.88988618 -2.81416671 10.26954864 -5 12 C-5.66 12 -6.32 12 -7 12 C-7.33 12.66 -7.66 13.32 -8 14 C-8.4025937 10.47730515 -8.13372795 9.20059192 -6.125 6.1875 C-5.42375 5.465625 -4.7225 4.74375 -4 4 C-3.34 4 -2.68 4 -2 4 C-1.34 2.68 -0.68 1.36 0 0 Z " fill="#17422D" transform="translate(392,212)"/>
<path d="M0 0 C0.671875 1.73828125 0.671875 1.73828125 1 4 C-0.109375 6.10546875 -0.109375 6.10546875 -1.75 8.1875 C-2.28109375 8.88230469 -2.8121875 9.57710938 -3.359375 10.29296875 C-5 12 -5 12 -8 13 C-8 13.66 -8 14.32 -8 15 C-9.32 15.33 -10.64 15.66 -12 16 C-11.67 15.34 -11.34 14.68 -11 14 C-10.34 14 -9.68 14 -9 14 C-8.6596875 12.948125 -8.6596875 12.948125 -8.3125 11.875 C-6.66158712 8.25871465 -4.7091165 5.91230024 -2 3 C-1.34 3 -0.68 3 0 3 C0 2.01 0 1.02 0 0 Z " fill="#42AD7D" transform="translate(250,394)"/>
<path d="M0 0 C0.33 0.66 0.66 1.32 1 2 C0.36328125 3.91015625 0.36328125 3.91015625 -0.6875 6.0625 C-1.02136719 6.77535156 -1.35523438 7.48820312 -1.69921875 8.22265625 C-3 10 -3 10 -5.14453125 10.74609375 C-6.06298828 10.87177734 -6.06298828 10.87177734 -7 11 C-7.061875 11.78375 -7.12375 12.5675 -7.1875 13.375 C-7.5896875 14.674375 -7.5896875 14.674375 -8 16 C-10.5625 17.3125 -10.5625 17.3125 -13 18 C-12.505 16.515 -12.505 16.515 -12 15 C-11.34 15 -10.68 15 -10 15 C-9.731875 14.195625 -9.46375 13.39125 -9.1875 12.5625 C-8.795625 11.716875 -8.40375 10.87125 -8 10 C-7.01 9.67 -6.02 9.34 -5 9 C-4.28752268 7.3523962 -3.62599617 5.68236471 -3 4 C-2.04175747 2.63634717 -1.05278825 1.29205831 0 0 Z " fill="#3C9A70" transform="translate(237,410)"/>
<path d="M0 0 C0.33 0.66 0.66 1.32 1 2 C11.23 2 21.46 2 32 2 C32 2.33 32 2.66 32 3 C27.41670862 3.16783381 22.83336053 3.3340662 18.25 3.5 C16.94804687 3.54769531 15.64609375 3.59539062 14.3046875 3.64453125 C13.05429687 3.68964844 11.80390625 3.73476563 10.515625 3.78125 C9.36352539 3.82314453 8.21142578 3.86503906 7.02441406 3.90820312 C4.68382066 3.97924471 2.34167128 4 0 4 C0 2.68 0 1.36 0 0 Z " fill="#237951" transform="translate(448,374)"/>
<path d="M0 0 C0.66 0 1.32 0 2 0 C1.44512849 4.16153636 -0.86280154 6.59537652 -3.5 9.75 C-4.3146875 10.73484375 -5.129375 11.7196875 -5.96875 12.734375 C-6.97421875 13.85585938 -6.97421875 13.85585938 -8 15 C-8.33 15 -8.66 15 -9 15 C-9.3125 12.8125 -9.3125 12.8125 -9 10 C-6.75 7.5 -6.75 7.5 -4 5 C-3.278125 4.071875 -2.55625 3.14375 -1.8125 2.1875 C-1.214375 1.465625 -0.61625 0.74375 0 0 Z " fill="#47BD86" transform="translate(600,559)"/>
<path d="M0 0 C0.33 0 0.66 0 1 0 C1 2.31 1 4.62 1 7 C-4.2734375 10.22265625 -4.2734375 10.22265625 -6 11 C-6.66 10.67 -7.32 10.34 -8 10 C-6.7260411 7.96166576 -5.38938077 5.96147874 -4 4 C-3.34 4 -2.68 4 -2 4 C-1.34 2.68 -0.68 1.36 0 0 Z " fill="#143D28" transform="translate(695,444)"/>
<path d="M0 0 C0.33 0 0.66 0 1 0 C0.67 2.31 0.34 4.62 0 7 C-0.99 7 -1.98 7 -3 7 C-3.2475 7.61875 -3.495 8.2375 -3.75 8.875 C-5.20628639 11.35068687 -6.37812506 11.95125002 -9 13 C-7.49806525 7.65978754 -3.82517494 3.86352256 0 0 Z " fill="#1D4B39" transform="translate(524,659)"/>
<path d="M0 0 C2.97 0.33 5.94 0.66 9 1 C9.66 2.65 10.32 4.3 11 6 C9.329375 5.4740625 9.329375 5.4740625 7.625 4.9375 C4.19735524 3.62760669 4.19735524 3.62760669 2 5 C1.34 3.35 0.68 1.7 0 0 Z " fill="#44BD88" transform="translate(670,379)"/>
<path d="M0 0 C0 3.65725087 -1.04218764 4.95451411 -3 8 C-3.474375 8.886875 -3.94875 9.77375 -4.4375 10.6875 C-6.10718584 13.15863505 -7.25087851 13.95722978 -10 15 C-8.65794923 11.19639883 -6.95995677 8.38858921 -4.4375 5.25 C-3.81746094 4.47140625 -3.19742188 3.6928125 -2.55859375 2.890625 C-1 1 -1 1 0 0 Z " fill="#194832" transform="translate(556,619)"/>
<path d="M0 0 C0 2.62113708 -0.31292445 4.50935112 -1 7 C-1.66 7 -2.32 7 -3 7 C-3.144375 7.61875 -3.28875 8.2375 -3.4375 8.875 C-4 11 -4 11 -5 13 C-7.5625 13.625 -7.5625 13.625 -10 14 C-8.53926179 10.59161083 -6.6021868 8.6021868 -4 6 C-2.63178949 4.02369593 -1.29048808 2.02790984 0 0 Z " fill="#194732" transform="translate(569,602)"/>
<path d="M0 0 C0.66 0 1.32 0 2 0 C1.49111733 4.41031645 -1.03449072 6.89327599 -4 10 C-4.99 10 -5.98 10 -7 10 C-7 10.66 -7 11.32 -7 12 C-7.66 11.67 -8.32 11.34 -9 11 C-8.34 10.01 -7.68 9.02 -7 8 C-6.34 8 -5.68 8 -5 8 C-4.731875 7.4225 -4.46375 6.845 -4.1875 6.25 C-2.97070811 3.94449957 -1.69666121 1.97943808 0 0 Z " fill="#48C38D" transform="translate(643,505)"/>
<path d="M0 0 C0 3.7185142 -0.85912168 4.31804606 -3.3125 7 C-3.92738281 7.680625 -4.54226563 8.36125 -5.17578125 9.0625 C-6.75544728 10.74026092 -8.35810926 12.38336911 -10 14 C-10 12.35 -10 10.7 -10 9 C-9.34 9 -8.68 9 -8 9 C-8 8.01 -8 7.02 -8 6 C-6.04690112 4.59886384 -4.04291182 3.26660533 -2 2 C-1.34 1.34 -0.68 0.68 0 0 Z " fill="#1A4D37" transform="translate(354,263)"/>
<path d="M0 0 C0.33 1.32 0.66 2.64 1 4 C0.01 4.495 0.01 4.495 -1 5 C-1.268125 5.639375 -1.53625 6.27875 -1.8125 6.9375 C-3.39241741 9.68156708 -5.0515206 10.06890124 -8 11 C-6.63629701 8.00779732 -5.05091917 5.70973471 -2.875 3.25 C-2.33617187 2.63640625 -1.79734375 2.0228125 -1.2421875 1.390625 C-0.62730469 0.70226562 -0.62730469 0.70226562 0 0 Z " fill="#3EA577" transform="translate(384,226)"/>
<path d="M0 0 C-0.55774272 3.23490776 -1.37211508 4.97855006 -4 7 C-4.99 7 -5.98 7 -7 7 C-7.1875 4.625 -7.1875 4.625 -7 2 C-4 0 -4 0 0 0 Z " fill="#3FBF88" transform="translate(575,593)"/>
<path d="M0 0 C-0.59927826 3.35595828 -1.84622436 5.37801226 -4 8 C-4.99 7.67 -5.98 7.34 -7 7 C-6.67 5.02 -6.34 3.04 -6 1 C-3 0 -3 0 0 0 Z " fill="#41BE87" transform="translate(582,584)"/>
<path d="M0 0 C0.66 0 1.32 0 2 0 C2 1.98 2 3.96 2 6 C1.01 6 0.02 6 -1 6 C-3.18777466 7.9375006 -3.18777466 7.9375006 -5 10 C-4.49890042 5.61537866 -3.01704885 3.1999003 0 0 Z " fill="#47C78E" transform="translate(226,426)"/>
<path d="M0 0 C0 3.38023517 -0.87455622 5.83468937 -2 9 C-2.99 8.67 -3.98 8.34 -5 8 C-5 8.99 -5 9.98 -5 11 C-7.5 12.6875 -7.5 12.6875 -10 14 C-9.34 12.35 -8.68 10.7 -8 9 C-7.34 9 -6.68 9 -6 9 C-5.566875 8.13375 -5.566875 8.13375 -5.125 7.25 C-4.568125 6.13625 -4.568125 6.13625 -4 5 C-3.67 4.278125 -3.34 3.55625 -3 2.8125 C-2 1 -2 1 0 0 Z " fill="#348661" transform="translate(343,277)"/>
<path d="M0 0 C-0.33 0.99 -0.66 1.98 -1 3 C-1.66 3 -2.32 3 -3 3 C-3 3.66 -3 4.32 -3 5 C-7.62 5 -12.24 5 -17 5 C-17 4.67 -17 4.34 -17 4 C-13.04 4 -9.08 4 -5 4 C-5 3.34 -5 2.68 -5 2 C-5.99 1.67 -6.98 1.34 -8 1 C-2.25 0 -2.25 0 0 0 Z " fill="#39966C" transform="translate(485,704)"/>
<path d="M0 0 C0.66 0.66 1.32 1.32 2 2 C1.75105973 6.4809249 -0.2602143 9.53497691 -3 13 C-3.99 13 -4.98 13 -6 13 C-4.99347455 9.98042366 -4.18410565 8.17869078 -1.875 5.9375 C0.46361429 3.97029971 0.46361429 3.97029971 0 0 Z " fill="#42B582" transform="translate(552,616)"/>
<path d="M0 0 C2 2 2 2 2.265625 3.875 C2.26046875 4.57625 2.2553125 5.2775 2.25 6 C2.25515625 6.70125 2.2603125 7.4025 2.265625 8.125 C2 10 2 10 0 12 C-2.08901197 8.60535554 -2.34361606 5.95158471 -2 2 C-1.34 1.34 -0.68 0.68 0 0 Z " fill="#47CF92" transform="translate(699,414)"/>
<path d="M0 0 C0.625 1.8125 0.625 1.8125 1 4 C0.01 5.485 0.01 5.485 -1 7 C-1.99 7 -2.98 7 -4 7 C-4.33 8.65 -4.66 10.3 -5 12 C-6.32 12.33 -7.64 12.66 -9 13 C-9 12.34 -9 11.68 -9 11 C-8.01 11 -7.02 11 -6 11 C-5.9071875 9.948125 -5.9071875 9.948125 -5.8125 8.875 C-4.70798798 4.9667267 -2.71769008 2.99642752 0 0 Z " fill="#194731" transform="translate(686,455)"/>
<path d="M0 0 C1.9375 0.8125 1.9375 0.8125 4 2 C5.28317892 5.84953676 5.06643637 8.94738135 5 13 C4 11 4 11 3 9 C2.46375 7.989375 1.9275 6.97875 1.375 5.9375 C0 3 0 3 0 0 Z " fill="#0F2A1C" transform="translate(696,395)"/>
<path d="M0 0 C6.44082605 1.45830024 6.44082605 1.45830024 9 3.9375 C10 6 10 6 9 9 C6 6 3 3 0 0 Z " fill="#153E2B" transform="translate(682,382)"/>
<path d="M0 0 C0 3.38023517 -0.87455622 5.83468937 -2 9 C-3.65 9.33 -5.3 9.66 -7 10 C-2.85714286 2.42857143 -2.85714286 2.42857143 0 0 Z " fill="#379C6E" transform="translate(332,291)"/>
<path d="M0 0 C0.66 0 1.32 0 2 0 C1.58578031 4.83256305 -0.46413986 6.82679218 -4 10 C-4.33 9.01 -4.66 8.02 -5 7 C-3.6875 5 -3.6875 5 -2 3 C-1.34 2.01 -0.68 1.02 0 0 Z " fill="#46BD85" transform="translate(588,573)"/>
<path d="M0 0 C0.66 0.99 1.32 1.98 2 3 C0.02 5.31 -1.96 7.62 -4 10 C-4.99 9.67 -5.98 9.34 -7 9 C-4.69 6.03 -2.38 3.06 0 0 Z " fill="#0C281B" transform="translate(599,566)"/>
<path d="M0 0 C0.33 0 0.66 0 1 0 C1.24862931 2.98355176 1.18991433 4.64865849 -0.25 7.3125 C-2 9 -2 9 -6 9 C-4.97407374 5.92222122 -4.24530756 5.15549526 -2 3 C-1.34 2.01 -0.68 1.02 0 0 Z " fill="#15412F" transform="translate(639,514)"/>
<path d="M0 0 C0.66 0 1.32 0 2 0 C0.63629701 2.99220268 -0.94908083 5.29026529 -3.125 7.75 C-3.93324219 8.67039062 -3.93324219 8.67039062 -4.7578125 9.609375 C-5.16773438 10.06828125 -5.57765625 10.5271875 -6 11 C-6.66 10.67 -7.32 10.34 -8 10 C-6.44303593 6.17836093 -3.96591316 3.81381505 -1 1 C-0.67 0.67 -0.34 0.34 0 0 Z " fill="#0D2D1D" transform="translate(666,482)"/>
<path d="M0 0 C0.33 1.32 0.66 2.64 1 4 C-0.98 4.99 -0.98 4.99 -3 6 C-3 6.99 -3 7.98 -3 9 C-4.32 9 -5.64 9 -7 9 C-7 7 -7 7 -5.1875 5.0625 C-4.465625 4.381875 -3.74375 3.70125 -3 3 C-2.4225 2.4225 -1.845 1.845 -1.25 1.25 C-0.8375 0.8375 -0.425 0.425 0 0 Z " fill="#48C48D" transform="translate(682,456)"/>
<path d="M0 0 C0.33 0.66 0.66 1.32 1 2 C-0.12104533 3.31587941 -1.24696965 4.62760353 -2.375 5.9375 C-3.00148437 6.66839844 -3.62796875 7.39929688 -4.2734375 8.15234375 C-6 10 -6 10 -8 11 C-7.62952882 8.25851328 -7.31412056 6.41406801 -5.625 4.1875 C-4 3 -4 3 -1 3 C-0.67 2.01 -0.34 1.02 0 0 Z " fill="#16422B" transform="translate(258,383)"/>
<path d="M0 0 C0.33 0.99 0.66 1.98 1 3 C0.01 4.485 0.01 4.485 -1 6 C0.65 5.01 2.3 4.02 4 3 C3.4375 4.875 3.4375 4.875 2 7 C-1.625 8.25 -1.625 8.25 -5 9 C-3.7508258 5.54074837 -2.32472205 2.85306797 0 0 Z " fill="#1E322A" transform="translate(277,353)"/>
<path d="M0 0 C0.66 0 1.32 0 2 0 C1.42110619 3.28754511 0.45171589 4.93672495 -1.9375 7.25 C-2.46214844 7.77078125 -2.98679687 8.2915625 -3.52734375 8.828125 C-5 10 -5 10 -7 10 C-6.34 8.68 -5.68 7.36 -5 6 C-4.34 6 -3.68 6 -3 6 C-3 5.01 -3 4.02 -3 3 C-2.01 3 -1.02 3 0 3 C0 2.01 0 1.02 0 0 Z " fill="#0E2719" transform="translate(355,258)"/>
<path d="M0 0 C0.41176754 3.60296594 0.1535853 4.78402067 -2 7.8125 C-2.66 8.534375 -3.32 9.25625 -4 10 C-4.33 9.34 -4.66 8.68 -5 8 C-4.33333333 6.33333333 -3.66666667 4.66666667 -3 3 C-3.33 2.34 -3.66 1.68 -4 1 C-2 0 -2 0 0 0 Z " fill="#46CA90" transform="translate(699,431)"/>
<path d="M0 0 C4.67692308 1.47692308 4.67692308 1.47692308 6.3125 4.125 C6.539375 4.74375 6.76625 5.3625 7 6 C5.35 6 3.7 6 2 6 C2 5.34 2 4.68 2 4 C1.34 4 0.68 4 0 4 C0 2.68 0 1.36 0 0 Z " fill="#47C790" transform="translate(683,386)"/>
<path d="M0 0 C0.33 1.32 0.66 2.64 1 4 C0.01 4.66 -0.98 5.32 -2 6 C-3.20450304 8.55183404 -3.20450304 8.55183404 -4 11 C-4.99 11 -5.98 11 -7 11 C-5.22054913 6.95579349 -2.60470327 3.53921513 0 0 Z " fill="#1A533A" transform="translate(537,642)"/>
<path d="M0 0 C1 3 1 3 -0.25 5.6875 C-0.8275 6.450625 -1.405 7.21375 -2 8 C-2.99 8 -3.98 8 -5 8 C-3.375 2.25 -3.375 2.25 0 0 Z " fill="#43B683" transform="translate(560,610)"/>
<path d="M0 0 C0.99 0 1.98 0 3 0 C2.40072174 3.35595828 1.15377564 5.37801226 -1 8 C-1.99 7.67 -2.98 7.34 -4 7 C-2.68 4.69 -1.36 2.38 0 0 Z " fill="#48C690" transform="translate(628,522)"/>
<path d="M0 0 C1 2 1 2 0.375 4.5625 C-1 7 -1 7 -3.625 7.8125 C-4.40875 7.874375 -5.1925 7.93625 -6 8 C-6 7.34 -6 6.68 -6 6 C-5.34 6 -4.68 6 -4 6 C-3.71125 5.38125 -3.4225 4.7625 -3.125 4.125 C-2 2 -2 2 0 0 Z " fill="#194433" transform="translate(514,672)"/>
<path d="M0 0 C0.33 0.66 0.66 1.32 1 2 C1.66 2.33 2.32 2.66 3 3 C0.36 4.65 -2.28 6.3 -5 8 C-3.8141763 4.62496331 -2.72426311 2.35277269 0 0 Z " fill="#194835" transform="translate(609,552)"/>
<path d="M0 0 C0.33 0 0.66 0 1 0 C1.26218749 3.14624993 1.24754367 4.61837017 -0.5 7.3125 C-1.2425 8.1478125 -1.2425 8.1478125 -2 9 C-2.99 8.67 -3.98 8.34 -5 8 C-4.01 6.02 -3.02 4.04 -2 2 C-1.34 2 -0.68 2 0 2 C0 1.34 0 0.68 0 0 Z " fill="#47C88F" transform="translate(668,472)"/>
<path d="M0 0 C-1.35021826 4.41889613 -3.26115668 6.34345343 -7 9 C-7 5 -7 5 -4.625 2.25 C-2 0 -2 0 0 0 Z " fill="#0A2618" transform="translate(287,346)"/>
<path d="M0 0 C0.66 0 1.32 0 2 0 C1.45773019 3.79588866 -0.20127563 5.47211993 -3 8 C-3 5.69 -3 3.38 -3 1 C-2.01 1.33 -1.02 1.66 0 2 C0 1.34 0 0.68 0 0 Z " fill="#0D271D" transform="translate(404,196)"/>
<path d="M0 0 C7.425 0.99 7.425 0.99 15 2 C15 2.33 15 2.66 15 3 C10.05 3 5.1 3 0 3 C0 2.01 0 1.02 0 0 Z " fill="#174832" transform="translate(464,707)"/>
<path d="M0 0 C0.66 0.66 1.32 1.32 2 2 C1.21654285 3.17219543 0.42297164 4.33763668 -0.375 5.5 C-0.81585937 6.1496875 -1.25671875 6.799375 -1.7109375 7.46875 C-2.13632812 7.9740625 -2.56171875 8.479375 -3 9 C-3.66 9 -4.32 9 -5 9 C-4.67 7.35 -4.34 5.7 -4 4 C-3.01 4 -2.02 4 -1 4 C-0.67 2.68 -0.34 1.36 0 0 Z " fill="#40AD7B" transform="translate(532,645)"/>
<path d="M0 0 C1 2 1 2 0.8125 4 C-0.25260795 6.62180417 -1.47377216 6.89477532 -4 8 C-4.33 8.66 -4.66 9.32 -5 10 C-5.66 9.67 -6.32 9.34 -7 9 C-4.69 6.03 -2.38 3.06 0 0 Z " fill="#1E543E" transform="translate(577,592)"/>
<path d="M0 0 C0.66 0.33 1.32 0.66 2 1 C1.19185349 2.33597652 0.37836819 3.668725 -0.4375 5 C-0.88996094 5.7425 -1.34242188 6.485 -1.80859375 7.25 C-2.20175781 7.8275 -2.59492187 8.405 -3 9 C-3.33 9 -3.66 9 -4 9 C-4 7.35 -4 5.7 -4 4 C-3.34 4 -2.68 4 -2 4 C-1.34 2.68 -0.68 1.36 0 0 Z " fill="#0E231B" transform="translate(644,510)"/>
<path d="M0 0 C1 2 1 2 0.8125 4 C-0.25260795 6.62180417 -1.47377216 6.89477532 -4 8 C-4.33 8.66 -4.66 9.32 -5 10 C-5.66 9.67 -6.32 9.34 -7 9 C-4.69 6.03 -2.38 3.06 0 0 Z " fill="#205B41" transform="translate(647,504)"/>
<path d="M0 0 C4.44870215 -0.39253254 7.14243493 0.84694043 11 3 C8.36749612 4.31625194 7.19820944 3.74813658 4.375 3.0625 C3.14910156 2.77052734 3.14910156 2.77052734 1.8984375 2.47265625 C0.95871094 2.23869141 0.95871094 2.23869141 0 2 C0 1.34 0 0.68 0 0 Z " fill="#378E69" transform="translate(666,376)"/>
<path d="M0 0 C0.66 0 1.32 0 2 0 C1.64950425 3.24208567 1.43778819 4.61527704 -1.0625 6.8125 C-1.701875 7.204375 -2.34125 7.59625 -3 8 C-2.67 6.02 -2.34 4.04 -2 2 C-1.34 2 -0.68 2 0 2 C0 1.34 0 0.68 0 0 Z " fill="#43AE7D" transform="translate(501,683)"/>
<path d="M0 0 C0.33 0.66 0.66 1.32 1 2 C0.00390625 3.9453125 0.00390625 3.9453125 -1.4375 6.125 C-1.91058594 6.84945312 -2.38367188 7.57390625 -2.87109375 8.3203125 C-3.24363281 8.87460937 -3.61617187 9.42890625 -4 10 C-4.66 9.67 -5.32 9.34 -6 9 C-5.18914873 7.68648079 -4.37626942 6.37421332 -3.5625 5.0625 C-3.11003906 4.33160156 -2.65757812 3.60070312 -2.19140625 2.84765625 C-1 1 -1 1 0 0 Z " fill="#122017" transform="translate(556,621)"/>
<path d="M0 0 C1.65 0 3.3 0 5 0 C5.99 1.98 6.98 3.96 8 6 C4.63408134 4.55746343 2.48952921 2.66735273 0 0 Z " fill="#399A6F" transform="translate(210,512)"/>
<path d="M0 0 C0.99 0 1.98 0 3 0 C4 6.625 4 6.625 4 10 C1.80902348 6.6659053 0.56545837 3.95820859 0 0 Z " fill="#338761" transform="translate(198,493)"/>
<path d="M0 0 C2.68674602 0.36307379 4.55872304 0.66904228 6.75 2.3125 C8.14744246 4.19904732 8.6037919 5.70199304 9 8 C8.01 7.34 7.02 6.68 6 6 C6 5.34 6 4.68 6 4 C5.01 3.67 4.02 3.34 3 3 C3 2.34 3 1.68 3 1 C2.01 0.67 1.02 0.34 0 0 Z " fill="#1A4E39" transform="translate(434,192)"/>
<path d="M0 0 C0.66 0.99 1.32 1.98 2 3 C1.01 3.99 0.02 4.98 -1 6 C-1.99 5.67 -2.98 5.34 -4 5 C-3.34 4.01 -2.68 3.02 -2 2 C-1.34 2 -0.68 2 0 2 C0 1.34 0 0.68 0 0 Z M2 0 C2.66 0 3.32 0 4 0 C4 0.66 4 1.32 4 2 C3.34 2 2.68 2 2 2 C2 1.34 2 0.68 2 0 Z " fill="#12241D" transform="translate(572,600)"/>
<path d="M0 0 C0.33 0.66 0.66 1.32 1 2 C-1.97 4.475 -1.97 4.475 -5 7 C-5 5.35 -5 3.7 -5 2 C-3.35 1.34 -1.7 0.68 0 0 Z " fill="#3EA578" transform="translate(674,470)"/>
<path d="M0 0 C0 3.99904969 -1.72586967 5.80200422 -4 9 C-5.37245106 6.25509788 -4.93580311 4.87939419 -4 2 C-1.9375 0.6875 -1.9375 0.6875 0 0 Z " fill="#1F5440" transform="translate(205,450)"/>
<path d="M0 0 C1.37245106 2.74490212 0.93580311 4.12060581 0 7 C-2.0625 8.3125 -2.0625 8.3125 -4 9 C-4 7.68 -4 6.36 -4 5 C-3.34 5 -2.68 5 -2 5 C-1.34 3.35 -0.68 1.7 0 0 Z " fill="#388965" transform="translate(698,436)"/>
<path d="M0 0 C3 1 3 1 5 4 C4.625 6.1875 4.625 6.1875 4 8 C2 5 2 5 2 3 C1.01 2.67 0.02 2.34 -1 2 C-0.67 1.34 -0.34 0.68 0 0 Z " fill="#4ACA91" transform="translate(692,396)"/>
<path d="M0 0 C0.99 0.66 1.98 1.32 3 2 C3.66 1.67 4.32 1.34 5 1 C4.34 2.32 3.68 3.64 3 5 C-1.875 3.25 -1.875 3.25 -3 1 C-2.01 0.67 -1.02 0.34 0 0 Z " fill="#33A670" transform="translate(560,607)"/>
<path d="M0 0 C0.33 1.32 0.66 2.64 1 4 C-2 6 -2 6 -5 6 C-5 5.34 -5 4.68 -5 4 C-4.34 4 -3.68 4 -3 4 C-3 3.34 -3 2.68 -3 2 C-2.01 2 -1.02 2 0 2 C0 1.34 0 0.68 0 0 Z " fill="#44BD89" transform="translate(623,531)"/>
<path d="M0 0 C0.33 1.32 0.66 2.64 1 4 C0.01 4 -0.98 4 -2 4 C-2.33 4.99 -2.66 5.98 -3 7 C-3.66 7 -4.32 7 -5 7 C-4.60196439 4.11424181 -4.20990931 3.17810487 -1.9375 1.25 C-1.298125 0.8375 -0.65875 0.425 0 0 Z " fill="#45B783" transform="translate(211,445)"/>
<path d="M0 0 C0.66 0 1.32 0 2 0 C1.1875 2.9375 1.1875 2.9375 0 6 C-0.99 6.33 -1.98 6.66 -3 7 C-3 5.35 -3 3.7 -3 2 C-2.34 2 -1.68 2 -1 2 C-0.67 1.34 -0.34 0.68 0 0 Z " fill="#153829" transform="translate(241,402)"/>
<path d="M0 0 C0.66 0 1.32 0 2 0 C1.67 1.32 1.34 2.64 1 4 C0.01 4 -0.98 4 -2 4 C-2 5.32 -2 6.64 -2 8 C-2.66 8 -3.32 8 -4 8 C-3.67 6.35 -3.34 4.7 -3 3 C-2.34 3 -1.68 3 -1 3 C-0.67 2.01 -0.34 1.02 0 0 Z " fill="#40A576" transform="translate(262,379)"/>
<path d="M0 0 C0.99 0.33 1.98 0.66 3 1 C1.38405168 3.04119788 -0.2856382 5.04072937 -2 7 C-2.66 7 -3.32 7 -4 7 C-2.79618552 4.50638429 -1.54571278 2.31856917 0 0 Z " fill="#0C271A" transform="translate(259,379)"/>
<path d="M0 0 C0.66 0.33 1.32 0.66 2 1 C1.01 1.33 0.02 1.66 -1 2 C-1.69937532 3.31647119 -2.36729133 4.65022151 -3 6 C-3.99 6.495 -3.99 6.495 -5 7 C-4.49396008 4.83125748 -4.00016187 3.00032373 -3 1 C-2.01 0.67 -1.02 0.34 0 0 Z " fill="#123C29" transform="translate(316,310)"/>
<path d="M0 0 C0.66 0 1.32 0 2 0 C0.73058503 3.91402949 -0.51167694 5.79072873 -4 8 C-3.40312566 4.65750371 -2.26396123 2.53563658 0 0 Z " fill="#4BC891" transform="translate(334,290)"/>
<path d="M0 0 C0.99 0.33 1.98 0.66 3 1 C1.35 2.98 -0.3 4.96 -2 7 C-2.33 6.01 -2.66 5.02 -3 4 C-1.5625 1.8125 -1.5625 1.8125 0 0 Z " fill="#09261B" transform="translate(398,204)"/>
<path d="M0 0 C0.33 0.99 0.66 1.98 1 3 C0.01 3.495 0.01 3.495 -1 4 C-1.99 3.67 -2.98 3.34 -4 3 C-4 3.66 -4 4.32 -4 5 C-4.99 4.67 -5.98 4.34 -7 4 C-6.34 4 -5.68 4 -5 4 C-4.67 3.01 -4.34 2.02 -4 1 C-1.9375 0.3125 -1.9375 0.3125 0 0 Z " fill="#41A87A" transform="translate(415,192)"/>
</svg>
