<?xml version="1.0" encoding="UTF-8"?>
<svg version="1.1" xmlns="http://www.w3.org/2000/svg" width="225" height="225">
<path d="M0 0 C74.25 0 148.5 0 225 0 C225 74.25 225 148.5 225 225 C150.75 225 76.5 225 0 225 C0 150.75 0 76.5 0 0 Z " fill="#398CCB" transform="translate(0,0)"/>
<path d="M0 0 C1.43243042 0.84498047 1.43243042 0.84498047 2.89379883 1.70703125 C4.46871094 2.63128906 4.46871094 2.63128906 6.07543945 3.57421875 C7.15631836 4.21617188 8.23719727 4.858125 9.35083008 5.51953125 C10.44331055 6.16148438 11.53579102 6.8034375 12.66137695 7.46484375 C20.56102353 12.11799355 20.56102353 12.11799355 24.16333008 14.51953125 C24.27734375 16.6496582 24.27734375 16.6496582 24.14379883 19.1953125 C24.40456419 22.72611351 24.68848743 24.06931895 27.29077148 26.53662109 C30.28320535 28.4356757 33.31916231 30.09579583 36.47583008 31.70703125 C39.63455018 33.4205341 42.79287974 35.13394418 45.94189453 36.86523438 C49.14579852 38.58568524 49.14579852 38.58568524 52.609375 39.83007812 C56.22723589 41.38490551 58.51612992 42.5865166 61.16333008 45.51953125 C63.03198043 51.61081772 62.20910692 58.37439623 61.85083008 64.64453125 C61.718041 67.25741551 61.60388468 69.86503514 61.54512024 72.48068237 C61.50755185 74.10172905 61.42737356 75.72250577 61.29899597 77.33889771 C61.13756108 79.8867465 61.13756108 79.8867465 62.16333008 83.51953125 C65.13333008 85.16953125 68.10333008 86.81953125 71.16333008 88.51953125 C71.16333008 101.05953125 71.16333008 113.59953125 71.16333008 126.51953125 C58.97583008 133.33203125 58.97583008 133.33203125 55.15869141 135.46411133 C54.15604248 136.02509521 53.15339355 136.5860791 52.12036133 137.1640625 C51.09918213 137.73487549 50.07800293 138.30568848 49.02587891 138.89379883 C47.13339681 139.96859954 45.26698188 141.09079401 43.43164062 142.26049805 C41.16333008 143.51953125 41.16333008 143.51953125 38.91333008 143.01953125 C37.26011537 142.11777777 35.62289088 141.18422226 34.02270508 140.19140625 C33.24411133 139.7221875 32.46551758 139.25296875 31.66333008 138.76953125 C30.93114258 138.3003125 30.19895508 137.83109375 29.44458008 137.34765625 C26.2985243 136.20559491 25.16746547 137.13250748 22.16333008 138.51953125 C20.26794575 139.54997868 18.39130733 140.61535128 16.53051758 141.70703125 C15.47735352 142.32320312 14.42418945 142.939375 13.33911133 143.57421875 C12.24985352 144.21617187 11.1605957 144.858125 10.03833008 145.51953125 C8.94133789 146.16148437 7.8443457 146.8034375 6.71411133 147.46484375 C0.86999201 150.88167688 0.86999201 150.88167688 -4.83666992 154.51953125 C-9.59819995 154.23412941 -12.87591026 152.6255914 -16.93432617 150.2109375 C-18.06547852 149.54642578 -19.19663086 148.88191406 -20.36206055 148.19726562 C-21.54141822 147.49272491 -22.72045201 146.78764177 -23.89916992 146.08203125 C-26.2206149 144.70354405 -28.54575347 143.33163522 -30.87182617 141.9609375 C-32.40915405 141.04356812 -32.40915405 141.04356812 -33.97753906 140.10766602 C-36.58461495 138.65953788 -38.97885663 137.37529163 -41.83666992 136.51953125 C-44.5703915 138.09418921 -44.5703915 138.09418921 -47.27416992 140.33203125 C-52.79677059 143.74245578 -52.79677059 143.74245578 -57.09838867 142.8203125 C-60.18251236 141.28362369 -62.94075614 139.58081949 -65.8034668 137.68212891 C-68.05778473 136.39309649 -70.25899587 135.64302244 -72.72729492 134.84375 C-78.26651301 132.77192737 -82.72579608 130.74961562 -85.83666992 125.51953125 C-87.53842483 119.54821594 -87.49433505 113.30627355 -87.46166992 107.14453125 C-87.4651947 106.32369049 -87.46871948 105.50284973 -87.47235107 104.65713501 C-87.39088694 91.40305268 -87.39088694 91.40305268 -84.01147461 87.30761719 C-81.28494336 85.5464488 -79.10090181 84.51953125 -75.83666992 84.51953125 C-75.83666992 71.64953125 -75.83666992 58.77953125 -75.83666992 45.51953125 C-73.21729492 44.07578125 -70.59791992 42.63203125 -67.89916992 41.14453125 C-60.56325407 37.09123948 -53.31657389 32.90744251 -46.14550781 28.56884766 C-41.05002034 25.51953125 -41.05002034 25.51953125 -38.83666992 25.51953125 C-38.98749023 24.81828125 -39.13831055 24.11703125 -39.29370117 23.39453125 C-39.70190965 20.09297699 -39.70989453 17.74275739 -38.83666992 14.51953125 C-35.58237249 11.458942 -31.84696088 9.59461512 -27.89135742 7.60986328 C-25.65055619 6.4207689 -23.53522082 5.10231905 -21.39916992 3.734375 C-20.65207764 3.26330322 -19.90498535 2.79223145 -19.13525391 2.30688477 C-17.66690266 1.37944597 -16.20517869 0.44141389 -14.75097656 -0.50805664 C-13.72798462 -1.13248657 -13.72798462 -1.13248657 -12.68432617 -1.76953125 C-12.08628174 -2.14803223 -11.4882373 -2.5265332 -10.87207031 -2.91650391 C-6.88910863 -4.0200953 -3.49339591 -1.82321653 0 0 Z " fill="#F9FBFD" transform="translate(119.836669921875,36.48046875)"/>
<path d="M0 0 C-0.22945312 0.98097656 -0.45890625 1.96195312 -0.6953125 2.97265625 C-1.35401957 7.736987 -1.45518912 11.73413183 1 16 C8.4570394 22.50719937 18.07328558 26.89857671 27 31 C27.83241211 31.44706299 28.66482422 31.89412598 29.52246094 32.35473633 C33.11596133 33.290647 34.62225403 32.08351562 37.78125 30.23828125 C38.87050781 29.61373047 39.95976563 28.98917969 41.08203125 28.34570312 C42.20996094 27.67474609 43.33789062 27.00378906 44.5 26.3125 C45.62792969 25.66087891 46.75585938 25.00925781 47.91796875 24.33789062 C50.95699414 22.57741379 53.98247077 20.79701807 57 19 C57.92965576 18.51257324 58.85931152 18.02514648 59.81713867 17.52294922 C62.44609033 16.06814731 62.44609033 16.06814731 62.70703125 12.20703125 C62.76665328 10.74297921 62.80098298 9.2777203 62.8125 7.8125 C62.83763672 7.06291016 62.86277344 6.31332031 62.88867188 5.54101562 C62.94747576 3.69457379 62.97661734 1.84722998 63 0 C66.3281799 1.5948597 69.62303845 3.23133124 72.88671875 4.953125 C75.63474045 6.38434496 78.33594489 7.49376107 81.26953125 8.484375 C85.70363408 10.20210923 89.49273865 11.78292979 92 16 C93.89036842 25.15740548 92.90576236 34.76308185 92 44 C91.19175781 43.54367188 90.38351563 43.08734375 89.55078125 42.6171875 C87.94783203 41.75480469 87.94783203 41.75480469 86.3125 40.875 C85.25675781 40.29492188 84.20101562 39.71484375 83.11328125 39.1171875 C80.12768295 37.72241886 80.12768295 37.72241886 77.47558594 38.61889648 C76.2501709 39.30254272 76.2501709 39.30254272 75 40 C74.0605957 40.4937915 73.12119141 40.98758301 72.15332031 41.49633789 C70.63109863 42.35086548 70.63109863 42.35086548 69.078125 43.22265625 C67.97082031 43.84333984 66.86351562 44.46402344 65.72265625 45.10351562 C64.57667969 45.74998047 63.43070312 46.39644531 62.25 47.0625 C61.07695843 47.719643 59.90378261 48.37654642 58.73046875 49.03320312 C53.57404932 51.60797436 53.57404932 51.60797436 49 55 C48.63583928 60.05610352 48.55765712 65.1138735 48.48510742 70.18164062 C48.45349487 71.88709711 48.40576711 73.59233468 48.34155273 75.296875 C47.54355241 84.82369614 47.54355241 84.82369614 50.82080078 93.25585938 C52.87836258 94.54257277 54.6584163 95.38808904 57 96 C52.64980518 99.77780076 47.90289677 102.43950827 42.875 105.1875 C41.65876953 105.86329102 41.65876953 105.86329102 40.41796875 106.55273438 C37.28653507 108.27890484 34.40056708 109.86647764 31 111 C28.5480957 109.92016602 28.5480957 109.92016602 25.67578125 108.25390625 C24.64775391 107.66416016 23.61972656 107.07441406 22.56054688 106.46679688 C21.48869141 105.83837891 20.41683594 105.20996094 19.3125 104.5625 C18.22904297 103.93794922 17.14558594 103.31339844 16.02929688 102.66992188 C13.34748521 101.12226845 10.67150439 99.56535683 8 98 C8 97.01 8 96.02 8 95 C10.31 93.68 12.62 92.36 15 91 C15 79.12 15 67.24 15 55 C6.57913375 50.15244766 6.57913375 50.15244766 -1.84301758 45.30712891 C-2.89126709 44.70304199 -3.9395166 44.09895508 -5.01953125 43.4765625 C-6.62985229 42.549646 -6.62985229 42.549646 -8.27270508 41.60400391 C-10.21699819 40.46050684 -12.1232034 39.25119773 -14 38 C-17.29063234 38.37239666 -19.80101925 39.90494608 -22.625 41.5625 C-26.78186969 44 -26.78186969 44 -29 44 C-29 34.76 -29 25.52 -29 16 C-25.03179881 13.71936609 -21.06290614 11.44004027 -17.09204102 9.1640625 C-15.74036063 8.3887934 -14.38912233 7.61275302 -13.03833008 6.8359375 C-11.10091965 5.72194427 -9.16195603 4.61070004 -7.22265625 3.5 C-6.31169945 2.9750293 -6.31169945 2.9750293 -5.38233948 2.43945312 C-1.11387171 0 -1.11387171 0 0 0 Z " fill="#398CCB" transform="translate(81,71)"/>
<path d="M0 0 C0.33 0 0.66 0 1 0 C1 19.47 1 38.94 1 59 C-18.47 59 -37.94 59 -58 59 C-58 58.67 -58 58.34 -58 58 C-57.175 57.87625 -56.35 57.7525 -55.5 57.625 C-37.03641928 54.32793201 -21.83533744 45.24652012 -10.90234375 29.875 C-5.01567093 20.97850884 -0.97077424 10.67851668 0 0 Z " fill="#FCFDFE" transform="translate(224,166)"/>
<path d="M0 0 C19.47 0 38.94 0 59 0 C59 20.13 59 40.26 59 61 C58.67 61 58.34 61 58 61 C57.91363281 60.20078125 57.82726562 59.4015625 57.73828125 58.578125 C55.58730455 41.76498605 47.85301845 26.0845163 34.72265625 15.09375 C24.10645072 7.24773749 12.89088617 3.20323991 0 1 C0 0.67 0 0.34 0 0 Z " fill="#FCFDFE" transform="translate(166,0)"/>
<path d="M0 0 C0.33 0 0.66 0 1 0 C1.20753906 0.99257812 1.41507812 1.98515625 1.62890625 3.0078125 C5.67714093 21.2792073 13.88470963 37.51744945 30 48 C38.54963344 52.84730426 47.3373923 56.1106633 57 58 C57 58.33 57 58.66 57 59 C38.19 59 19.38 59 0 59 C0 39.53 0 20.06 0 0 Z " fill="#FCFDFE" transform="translate(0,166)"/>
<path d="M0 0 C18.81 0 37.62 0 57 0 C57 0.33 57 0.66 57 1 C56.06800781 1.20753906 55.13601562 1.41507812 54.17578125 1.62890625 C35.36610365 6.17441985 20.51933591 15.47537271 10 32 C5.35445179 40.31735706 2.74258457 48.66035814 1 58 C0.67 58 0.34 58 0 58 C0 38.86 0 19.72 0 0 Z " fill="#FCFDFE" transform="translate(0,0)"/>
<path d="M0 0 C1.04489861 7.20743641 2.1399578 14.92541234 0 22 C-4.15232383 27.13495372 -10.80400095 30.02831497 -17 32 C-17.66 32 -18.32 32 -19 32 C-20.04489861 24.79256359 -21.1399578 17.07458766 -19 10 C-14.98000533 5.02869057 -6.56691611 0 0 0 Z " fill="#3B8DCB" transform="translate(183,136)"/>
<path d="M0 0 C0.26275596 3.5402436 0.42160329 7.07798133 0.5625 10.625 C0.63791016 11.62402344 0.71332031 12.62304688 0.79101562 13.65234375 C0.88094703 16.67004189 0.82360006 19.09104346 0 22 C-2.63579913 24.77962064 -5.56863648 26.35693305 -9 28 C-10.01191406 28.55429688 -11.02382812 29.10859375 -12.06640625 29.6796875 C-14.37760417 30.78645833 -16.68880208 31.89322917 -19 33 C-21.06337988 14.07062619 -21.06337988 14.07062619 -17.8046875 9.22119141 C-14.36094815 6.15162759 -10.28179496 4.63139902 -6 3 C-0.87412587 0 -0.87412587 0 0 0 Z " fill="#3C8ECC" transform="translate(89,135)"/>
<path d="M0 0 C15.91570881 5.30523627 15.91570881 5.30523627 19 10 C20.66731195 17.15548955 19.78888238 24.76282109 19 32 C17.1445296 31.08597517 15.29069121 30.16863711 13.4375 29.25 C12.40496094 28.73953125 11.37242187 28.2290625 10.30859375 27.703125 C6.81702163 25.90581043 3.40960039 23.94834308 0 22 C0 14.74 0 7.48 0 0 Z " fill="#3A8CCB" transform="translate(137,136)"/>
<path d="M0 0 C2.41894845 1.26663843 4.83513775 2.53811336 7.25 3.8125 C7.93191406 4.16892578 8.61382812 4.52535156 9.31640625 4.89257812 C10.31220703 5.41948242 10.31220703 5.41948242 11.328125 5.95703125 C11.9355957 6.27647705 12.54306641 6.59592285 13.16894531 6.92504883 C15.31918766 8.18738443 17.17661105 9.28176841 19 11 C19.45410156 13.36010742 19.45410156 13.36010742 19.390625 16.10546875 C19.37128906 17.57983398 19.37128906 17.57983398 19.3515625 19.08398438 C19.31804688 20.10814453 19.28453125 21.13230469 19.25 22.1875 C19.23195313 23.22326172 19.21390625 24.25902344 19.1953125 25.32617188 C19.14814437 27.88504284 19.08234057 30.44205842 19 33 C17.33154605 32.10749982 15.66534383 31.21079008 14 30.3125 C12.6078125 29.56419922 12.6078125 29.56419922 11.1875 28.80078125 C10.135625 28.20652344 9.08375 27.61226562 8 27 C7.29294922 26.69473389 6.58589844 26.38946777 5.85742188 26.07495117 C3.48436549 24.91605951 1.81433656 23.9282844 0 22 C-0.98542483 18.18941358 -0.7597138 14.59069874 -0.5 10.6875 C-0.46390625 9.66076172 -0.4278125 8.63402344 -0.390625 7.57617188 C-0.29651459 5.04695455 -0.16524592 2.5254026 0 0 Z " fill="#388CCB" transform="translate(42,135)"/>
<path d="M0 0 C2.90889218 1.46328142 5.59873909 3.20537706 8.3125 5 C9.05306641 5.47695312 9.79363281 5.95390625 10.55664062 6.4453125 C12.3776273 7.62014261 14.18971624 8.80874394 16 10 C12.48651005 12.91283818 8.90349363 15.44750067 5 17.8125 C3.989375 18.43769531 2.97875 19.06289062 1.9375 19.70703125 C-1.51833254 21.22814903 -2.5027897 21.31733482 -6 20 C-8.68187949 18.5977935 -11.24681939 17.04074348 -13.8125 15.4375 C-14.50537109 15.01275391 -15.19824219 14.58800781 -15.91210938 14.15039062 C-17.61216951 13.10690544 -19.30665476 12.05434704 -21 11 C-17.99129659 7.73876753 -14.87911837 5.50243051 -11.0625 3.25 C-9.53302734 2.32960938 -9.53302734 2.32960938 -7.97265625 1.390625 C-4.75306173 -0.11551908 -3.46845937 -0.67727313 0 0 Z " fill="#3B8DCB" transform="translate(68,118)"/>
<path d="M0 0 C15.76788887 5.08023167 15.76788887 5.08023167 19 10 C20.66731195 17.15548955 19.78888238 24.76282109 19 32 C17.14198339 31.11217926 15.28877783 30.2142881 13.4375 29.3125 C11.88869141 28.56419922 11.88869141 28.56419922 10.30859375 27.80078125 C9.21675781 27.20652344 8.12492187 26.61226562 7 26 C6.35683838 25.68893311 5.71367676 25.37786621 5.05102539 25.05737305 C2.94726466 23.86829089 1.52930255 22.87937395 0 21 C-0.84945377 17.35857225 -0.66444831 13.90097297 -0.4375 10.1875 C-0.40591797 9.20845703 -0.37433594 8.22941406 -0.34179688 7.22070312 C-0.2595047 4.81071797 -0.1446501 2.40691407 0 0 Z " fill="#388CCB" transform="translate(89,61)"/>
<path d="M0 0 C1.04489861 7.20743641 2.1399578 14.92541234 0 22 C-4.15232383 27.13495372 -10.80400095 30.02831497 -17 32 C-17.66 32 -18.32 32 -19 32 C-20.04489861 24.79256359 -21.1399578 17.07458766 -19 10 C-14.98000533 5.02869057 -6.56691611 0 0 0 Z " fill="#3C8ECC" transform="translate(135,61)"/>
<path d="M0 0 C2.7294267 1.36471335 5.29764204 2.93167175 7.875 4.5625 C8.56335938 4.98724609 9.25171875 5.41199219 9.9609375 5.84960938 C11.64600952 6.8910775 13.32377031 7.94435916 15 9 C11.48651005 11.91283818 7.90349363 14.44750067 4 16.8125 C2.989375 17.43769531 1.97875 18.06289062 0.9375 18.70703125 C-2.51833254 20.22814903 -3.5027897 20.31733482 -7 19 C-9.68187949 17.5977935 -12.24681939 16.04074348 -14.8125 14.4375 C-15.50537109 14.01275391 -16.19824219 13.58800781 -16.91210938 13.15039062 C-18.61216951 12.10690544 -20.30665476 11.05434704 -22 10 C-19.00201439 6.76533132 -15.89658819 4.46676767 -12.125 2.1875 C-11.11695313 1.56230469 -10.10890625 0.93710938 -9.0703125 0.29296875 C-5.31934296 -1.28663802 -3.86339647 -1.22308532 0 0 Z " fill="#3A8DCB" transform="translate(164,119)"/>
<path d="M0 0 C2.7294267 1.36471335 5.29764204 2.93167175 7.875 4.5625 C8.56335938 4.98724609 9.25171875 5.41199219 9.9609375 5.84960938 C11.64600952 6.8910775 13.32377031 7.94435916 15 9 C11.35979227 12.05614455 7.64121936 14.54314518 3.5 16.875 C2.3965625 17.51179688 1.293125 18.14859375 0.15625 18.8046875 C-3 20 -3 20 -5.44921875 19.453125 C-6.29097656 18.97359375 -7.13273437 18.4940625 -8 18 C-8.56090332 17.69400879 -9.12180664 17.38801758 -9.69970703 17.07275391 C-11.58774858 16.03435595 -13.45095372 14.96010319 -15.3125 13.875 C-15.95767578 13.50246094 -16.60285156 13.12992188 -17.26757812 12.74609375 C-18.84675945 11.83367787 -20.42361864 10.91724491 -22 10 C-19.00201439 6.76533132 -15.89658819 4.46676767 -12.125 2.1875 C-11.11695312 1.56230469 -10.10890625 0.93710937 -9.0703125 0.29296875 C-5.31934296 -1.28663802 -3.86339647 -1.22308532 0 0 Z " fill="#3A8DCB" transform="translate(116,44)"/>
<path d="M0 0 C0.66 0 1.32 0 2 0 C2.33 8.25 2.66 16.5 3 25 C3.66 25.33 4.32 25.66 5 26 C3.35 26.66 1.7 27.32 0 28 C0 18.76 0 9.52 0 0 Z " fill="#4995CF" transform="translate(52,87)"/>
<path d="M0 0 C3 3 3 3 3.34057617 5.17651367 C3.32486572 5.99869385 3.30915527 6.82087402 3.29296875 7.66796875 C3.28330078 8.56064453 3.27363281 9.45332031 3.26367188 10.37304688 C3.23853516 11.30181641 3.21339844 12.23058594 3.1875 13.1875 C3.16719727 14.59805664 3.16719727 14.59805664 3.14648438 16.03710938 C3.11113096 18.35865038 3.06178674 20.67903653 3 23 C2.01 22.67 1.02 22.34 0 22 C0 14.74 0 7.48 0 0 Z " fill="#5EA1D4" transform="translate(42,135)"/>
<path d="M0 0 C0.99 0.33 1.98 0.66 3 1 C2.67 7.6 2.34 14.2 2 21 C1.34 21 0.68 21 0 21 C0 14.07 0 7.14 0 0 Z " fill="#4794CE" transform="translate(89,61)"/>
</svg>
