<?xml version="1.0" encoding="UTF-8"?>
<svg version="1.1" xmlns="http://www.w3.org/2000/svg" width="225" height="225">
<path d="M0 0 C74.25 0 148.5 0 225 0 C225 74.25 225 148.5 225 225 C150.75 225 76.5 225 0 225 C0 150.75 0 76.5 0 0 Z " fill="#FDFDFD" transform="translate(0,0)"/>
<path d="M0 0 C4.40162364 2.20081182 5.06949762 3.35676747 7.56640625 7.41015625 C13.65710469 15.92970405 20.29398494 24.55844528 31.14916992 26.58911133 C42.59393362 27.68513612 54.12762396 27.13622841 65.56274414 26.19360352 C85.2090597 24.90959929 85.2090597 24.90959929 93.05224609 31.23974609 C97.86081959 35.76150853 102.09093159 40.68653721 106 46 C104.07139535 50.21676405 101.17029862 53.08321791 97.8984375 56.296875 C97.30197418 56.89050842 96.70551086 57.48414185 96.0909729 58.09576416 C94.1903019 59.98526627 92.28278526 61.86768392 90.375 63.75 C89.08287532 65.03209065 87.79120324 66.31463761 86.5 67.59765625 C83.33855521 70.73708432 80.1709539 73.87017801 77 77 C76.53814804 76.6026767 76.07629608 76.20535339 75.60044861 75.79598999 C71.78288884 72.51501521 71.78288884 72.51501521 67.92016602 69.28759766 C55.91685961 59.39300398 55.91685961 59.39300398 55.09765625 52.53125 C54.90734279 48.55136142 55.50160227 45.05838148 56 41 C46.76 41 37.52 41 28 41 C26.03848895 59.55006162 26.03848895 59.55006162 33.48876953 75.71679688 C38.77765623 81.86686645 44.81347931 87.3175863 50.8560791 92.71002197 C53.73429772 95.30750155 56.5337859 97.98728603 59.34179688 100.66015625 C64.82256853 105.85487124 70.38067864 110.9550317 76 116 C69.70406819 123.42597701 69.70406819 123.42597701 66.7890625 126.30859375 C66.26699219 126.82744141 65.74492188 127.34628906 65.20703125 127.88085938 C64.68496094 128.39455078 64.16289063 128.90824219 63.625 129.4375 C63.07972656 129.97826172 62.53445312 130.51902344 61.97265625 131.07617188 C60.65076536 132.38646723 59.32572382 133.69358284 58 135 C64.31087811 148.2786638 74.16608332 161.14116132 88 167 C108.00559913 172.23678335 130.56011517 170.12560495 151.03409719 169.46213102 C159.1133775 169.20604361 167.19221603 169.11547945 175.27485514 169.03581858 C191.85694024 168.86882885 208.42361692 168.48169317 225 168 C225 177.24 225 186.48 225 196 C150.75 196 76.5 196 0 196 C0 131.32 0 66.64 0 0 Z " fill="#FEFEFE" transform="translate(0,29)"/>
<path d="M0 0 C15.16795276 -1.4250831 30.33713202 -2.39041293 45.5625 -2.9375 C47.2302907 -2.99784927 47.2302907 -2.99784927 48.93177414 -3.05941772 C74.39376365 -3.87445018 97.7514252 -4.47380099 117.37889099 13.58522034 C120.62918183 16.73112315 123.63158634 20.05695192 126.5625 23.5 C127.04148365 24.0620174 127.5204673 24.62403481 128.01396561 25.20308304 C133.84264298 32.12663654 139.1502082 39.35271168 144 47 C141.95933017 51.26615504 139.41446998 53.73398524 136 57 C137.37350654 60.29074726 138.67037142 61.68055913 141.6953125 63.51953125 C147.44165688 67.6019162 152.942036 71.91367862 154.45153809 79.1708374 C155.95886945 91.31639029 154.92830635 103.83918681 154 116 C148.93288701 111.75789864 144.18776629 107.32282911 139.53515625 102.6328125 C138.85698349 101.95322479 138.17881073 101.27363708 137.48008728 100.57345581 C135.33850859 98.42632998 133.20045471 96.27573373 131.0625 94.125 C129.60114411 92.65862227 128.13955774 91.1924742 126.67773438 89.7265625 C123.11582065 86.15369 119.55706135 82.57770316 116 79 C112.78956118 80.38188453 110.95063635 81.92421903 108.75 84.625 C108.22921875 85.25664063 107.7084375 85.88828125 107.171875 86.5390625 C106.78515625 87.02117187 106.3984375 87.50328125 106 88 C106.47606689 88.47384628 106.95213379 88.94769257 107.44262695 89.43589783 C112.37652186 94.34774801 117.3069556 99.26305241 122.23535156 104.18041992 C124.07755556 106.0175808 125.92065409 107.85384513 127.76464844 109.68920898 C130.40793196 112.32042596 133.04803019 114.95480184 135.6875 117.58984375 C136.51870361 118.41588608 137.34990723 119.24192841 138.20629883 120.09300232 C138.9670874 120.85371536 139.72787598 121.61442841 140.51171875 122.39819336 C141.18678467 123.07103867 141.86185059 123.74388397 142.55737305 124.43711853 C144 126 144 126 144 127 C106.89917695 130.12962963 106.89917695 130.12962963 97.3359375 122.9921875 C92.90145799 118.82560178 89.18920558 114.17863324 86 109 C82.22480438 110.76229689 79.69270677 112.76875188 77 116 C77.79902434 123.78046933 85.01705095 130.77150256 90.51464844 135.68261719 C99.34737061 142.41230297 110.09187168 141.53436556 120.6953125 141.2578125 C121.74688286 141.23290489 122.79845322 141.20799728 123.88188934 141.1823349 C132.75974313 140.93509641 141.62395162 140.4653647 150.487854 139.91693115 C158.16002928 139.44320901 165.82170997 139.08272474 173.5078125 138.9453125 C174.55700111 138.92597908 175.60618973 138.90664566 176.68717194 138.88672638 C190.2983439 138.82332797 199.71122599 140.68775794 209.69821167 150.31173706 C223 164.21583064 223 164.21583064 223 168 C205.65773748 168.70691915 188.32007819 169.23265866 170.96661949 169.55436516 C162.9047403 169.70785537 154.85198419 169.91694597 146.79589844 170.26318359 C88.18768785 172.73464458 88.18768785 172.73464458 72.61010933 159.19133949 C66.05951429 152.89966665 60.66862482 145.76856733 56 138 C57.53287586 134.77685313 59.14150688 132.62264402 61.6953125 130.109375 C62.41074219 129.40039062 63.12617187 128.69140625 63.86328125 127.9609375 C64.60964844 127.23132813 65.35601562 126.50171875 66.125 125.75 C66.87910156 125.00492187 67.63320312 124.25984375 68.41015625 123.4921875 C70.26900772 121.6568658 72.13237005 119.8263809 74 118 C70.02058331 113.10073237 65.78225089 108.86752082 61.06912231 104.67402649 C57.33367876 101.33979434 53.68556991 97.91454873 50.03027344 94.49291992 C48.1061885 92.71774945 46.15855361 90.96774296 44.1875 89.24487305 C26.92149686 74.086355 26.92149686 74.086355 25.74511719 62.39208984 C25.43466042 55.41278982 26.29354418 49.09746762 27 42 C36.24 42 45.48 42 55 42 C54.773125 44.248125 54.54625 46.49625 54.3125 48.8125 C54.22059388 55.01288093 56.18975869 58.69390669 60.296875 63.29296875 C64.98771512 68.09079373 69.919194 72.61898011 75 77 C81.55377097 71.61359076 87.47246635 65.64114873 93.4375 59.625 C94.46525983 58.59221405 95.49325285 57.55966009 96.52148438 56.52734375 C99.01701598 54.02089713 101.50938082 51.5113292 104 49 C100.14233354 40.85957343 93.99668318 33.30642137 86 29 C77.87103921 27.1516259 69.34637954 28.27170305 61.11172485 28.90820312 C28.47096949 31.23132713 28.47096949 31.23132713 17.1328125 22.01953125 C10.37496047 15.99077516 4.64607585 8.7608663 0 1 C0 0.67 0 0.34 0 0 Z " fill="#221E1F" transform="translate(1,28)"/>
<path d="M0 0 C10.82269968 1.6916743 22.0521936 13.19200783 28.51835632 21.38813782 C41.42871263 40.83890694 34.6033455 76.21047321 33 98 C23.76 98 14.52 98 5 98 C5.17144531 94.20113281 5.34289062 90.40226562 5.51953125 86.48828125 C8.04907712 57.68053714 8.04907712 57.68053714 -2.14002991 32.17720032 C-5.99133963 28.35500324 -10.39473307 25.1929199 -15.08813477 22.49316406 C-15.71905029 22.00041992 -16.34996582 21.50767578 -17 21 C-17 19.68 -17 18.36 -17 17 C-15.37609523 15.61490475 -13.69859667 14.29241051 -12 13 C-10.38521441 11.17201533 -8.85116885 9.29856563 -7.33203125 7.390625 C-6.89246094 6.93171875 -6.45289063 6.4728125 -6 6 C-5.34 6 -4.68 6 -4 6 C-4 5.34 -4 4.68 -4 4 C-3.34 4 -2.68 4 -2 4 C-1.34 2.68 -0.68 1.36 0 0 Z " fill="#231F20" transform="translate(164,57)"/>
</svg>
