<?xml version="1.0" encoding="UTF-8"?>
<svg version="1.1" xmlns="http://www.w3.org/2000/svg" width="200" height="200">
<path d="M0 0 C66 0 132 0 200 0 C200 66 200 132 200 200 C134 200 68 200 0 200 C0 134 0 68 0 0 Z " fill="#FEFDF9" transform="translate(0,0)"/>
<path d="M0 0 C1 1 1 1 1.01953125 3.95703125 C0.15285494 20.09683353 -4.66993614 33.75967634 -16.69140625 45.1484375 C-24.19406327 51.16579693 -32.64324296 55.79247014 -42.3125 56.6875 C-43.17488281 56.77386719 -44.03726563 56.86023438 -44.92578125 56.94921875 C-45.61027344 56.96597656 -46.29476562 56.98273438 -47 57 C-49.92494635 54.07505365 -48.32352357 43.31525096 -48.35009766 39.16430664 C-48.36662215 37.27192863 -48.39386576 35.37961213 -48.43212891 33.48754883 C-48.48705304 30.75829706 -48.50879852 28.0305122 -48.5234375 25.30078125 C-48.54610687 24.45993484 -48.56877625 23.61908844 -48.59213257 22.75276184 C-48.5773087 18.60655633 -48.32173515 15.84628525 -45.70166016 12.53076172 C-42.09827476 9.15531503 -42.09827476 9.15531503 -39.25 8.20703125 C-38.22314087 7.85257935 -38.22314087 7.85257935 -37.17553711 7.4909668 C-36.45760986 7.26707275 -35.73968262 7.04317871 -35 6.8125 C-34.25177979 6.5647583 -33.50355957 6.3170166 -32.73266602 6.06176758 C-22.37114537 2.70876404 -11.00886645 -0.66720403 0 0 Z " fill="#020202" transform="translate(95,35)"/>
<path d="M0 0 C10.17717271 0.214778 19.47278167 2.46996097 29.125 5.4375 C30.12901855 5.7454248 30.12901855 5.7454248 31.15332031 6.05957031 C44.47937084 10.26053049 44.47937084 10.26053049 48 16 C48.54456846 19.07576745 48.49026542 22.08718741 48.42578125 25.203125 C48.42249313 26.08152039 48.41920502 26.95991577 48.41581726 27.8649292 C48.4054232 29.71406508 48.38551875 31.56316902 48.35668945 33.41210938 C48.31243636 36.25408687 48.29522589 39.09521989 48.28320312 41.9375 C48.2697862 43.7343873 48.25486521 45.53126414 48.23828125 47.328125 C48.23089432 48.18222961 48.22350739 49.03633423 48.21589661 49.9163208 C48.11831143 55.88168857 48.11831143 55.88168857 47 57 C35.16906864 57.34723908 24.5022151 51.86653547 16 44 C5.78034987 34.23204711 0.16529016 22.24496819 -0.6875 8.125 C-0.73455078 7.44953125 -0.78160156 6.7740625 -0.83007812 6.078125 C-0.93361204 4.38763679 -0.97255033 2.69343325 -1 1 C-0.67 0.67 -0.34 0.34 0 0 Z " fill="#020202" transform="translate(105,35)"/>
<path d="M0 0 C0.25662245 5.77400512 -0.36861571 10.33589429 -2.5 15.75 C-2.76917236 16.44319336 -3.03834473 17.13638672 -3.31567383 17.85058594 C-8.1571 29.77343959 -16.18906191 38.86914888 -25 48 C-25.89138672 48.96873047 -25.89138672 48.96873047 -26.80078125 49.95703125 C-30.45856383 53.83264704 -34.52877453 57.18107248 -38.6875 60.5 C-39.24679199 60.95842285 -39.80608398 61.4168457 -40.38232422 61.88916016 C-44.44755865 65.05046773 -44.44755865 65.05046773 -47.39453125 64.78125 C-47.92433594 64.5234375 -48.45414062 64.265625 -49 64 C-49.88499508 45.73468482 -47.07936459 27.9451206 -34.5625 13.6875 C-25.85590001 5.67810821 -11.92421849 -0.76930442 0 0 Z " fill="#040404" transform="translate(153,100)"/>
<path d="M0 0 C13.65695875 0.91046392 26.12416434 5.64740717 35.75 15.5625 C47.44793197 29.40987529 49.67007254 46.50366152 49 64 C47.21679688 64.64526367 47.21679688 64.64526367 45 65 C43.26757813 64.1105957 43.26757813 64.1105957 41.53125 62.67578125 C40.88365723 62.14799072 40.23606445 61.6202002 39.56884766 61.07641602 C38.88612793 60.49432373 38.2034082 59.91223145 37.5 59.3125 C36.79020996 58.71816162 36.08041992 58.12382324 35.34912109 57.51147461 C20.91386069 45.27090662 8.28929228 32.2389476 2 14 C1.63132813 12.98679687 1.26265625 11.97359375 0.8828125 10.9296875 C-0.2779378 7.07764003 -0.13793767 4.00019232 0 0 Z " fill="#040404" transform="translate(47,100)"/>
</svg>
