<?xml version="1.0" encoding="UTF-8"?>
<svg version="1.1" xmlns="http://www.w3.org/2000/svg" width="1418" height="1418">
<path d="M0 0 C1.3610083 0.8355542 1.3610083 0.8355542 2.74951172 1.68798828 C38.71994781 23.86693201 73.09210937 49.5022187 104.05078125 78.296875 C106.21162092 80.30017138 108.42430828 82.23083177 110.65869141 84.15161133 C115.08718566 88.02200702 119.25837717 92.11396002 123.41015625 96.27734375 C124.18129257 97.04752335 124.95242889 97.81770294 125.74693298 98.61122131 C127.36580153 100.22941373 128.98342551 101.84885212 130.59985352 103.46948242 C133.05568718 105.93067232 135.51681365 108.38647809 137.97851562 110.84179688 C139.56021653 112.42415867 141.14160717 114.00683067 142.72265625 115.58984375 C143.44888687 116.31405014 144.17511749 117.03825653 144.9233551 117.78440857 C149.48154647 122.3632915 153.80058444 127.09099797 158 132 C158.93828727 133.0824777 159.87699919 134.16458769 160.81640625 135.24609375 C224.35264032 208.93023743 272.71101556 294.64690061 314.59912109 508.11938477 C309.49903214 576.51502217 266.22182874 640.60187231 222.42578125 691.17578125 C220.13560616 693.84212037 217.93903268 696.56300997 215.75 699.3125 C205.36911659 711.99019908 193.62161161 723.47341528 182.0625 735.0625 C181.47664124 735.6510376 180.89078247 736.2395752 180.28717041 736.84594727 C174.03485003 743.11993378 167.7670316 749.27606694 161 755 C159.80798568 756.0446995 158.61787374 757.09157369 157.4296875 758.140625 C149.16580525 765.38518389 140.73222324 772.32840164 132 779 C131.3910791 779.46728516 130.7821582 779.93457031 130.15478516 780.41601562 C105.35618839 799.40193949 79.36725387 815.96863414 52 831 C51.1450293 831.47147461 50.29005859 831.94294922 49.40917969 832.42871094 C20.32012601 848.37055327 -10.48008619 860.77276023 -42 871 C-43.1144751 871.3619043 -44.2289502 871.72380859 -45.37719727 872.09667969 C-52.84042991 874.45969073 -60.34918082 876.34712253 -68 878 C-67.2747476 873.94913798 -65.33449701 870.50621944 -63.45703125 866.89453125 C-62.71172087 865.43890667 -61.96712364 863.98291678 -61.22314453 862.52661133 C-60.83016174 861.7594278 -60.43717896 860.99224426 -60.0322876 860.20181274 C-25.37965789 792.32444628 -3.45181904 718.68558064 -22.8125 381.375 C-49.45860179 299.501579 -92.88697112 224.75409503 -151.47241211 161.67114258 C-152.61259031 160.42381642 -153.73881033 159.16370439 -154.85766602 157.8972168 C-160.92404602 151.04807809 -167.29665897 144.5498293 -173.77514648 138.09448242 C-175.5667595 136.3082533 -177.35293055 134.51670653 -179.13867188 132.72460938 C-184.92556405 126.93435486 -190.76083083 121.3063135 -197 116 C-198.77570221 114.38032183 -200.54708307 112.75588282 -202.3125 111.125 C-206.72353173 107.10619407 -211.23735358 103.27134676 -215.8828125 99.52734375 C-218.21237942 97.64952084 -220.51257397 95.73975883 -222.8046875 93.81640625 C-233.22460928 85.09441764 -243.94463162 76.8993736 -255 69 C-255.90556641 68.35240723 -256.81113281 67.70481445 -257.74414062 67.03759766 C-271.17361139 57.47453724 -284.83358444 48.43280408 -299 40 C-299.97211426 39.41927734 -300.94422852 38.83855469 -301.94580078 38.24023438 C-371.22950473 -2.95607945 -447.12101008 -31.19606137 -599 -49 C-596.43220879 -52.04105505 -593.61767655 -53.20950745 -589.97265625 -54.71484375 C-589.36492371 -54.96656342 -588.75719116 -55.21828308 -588.13104248 -55.47763062 C-586.11228656 -56.30805277 -584.08821494 -57.12421026 -582.0625 -57.9375 C-581.00982437 -58.36293594 -581.00982437 -58.36293594 -579.93588257 -58.79696655 C-500.50284685 -90.78538112 -416.09785671 -104.34807989 0 0 Z " fill="#ED342F" transform="translate(1041,144)"/>
<path d="M0 0 C3.52826474 1.17608825 3.7535425 1.79470324 5.53125 4.91015625 C6.0061084 5.72685791 6.4809668 6.54355957 6.97021484 7.38500977 C7.7274585 8.71036743 7.7274585 8.71036743 8.5 10.0625 C25.66948076 39.35360297 46.92894295 66.44893936 69.76953125 91.5234375 C71.0215869 92.91363589 72.26720056 94.30993479 73.48883057 95.72694397 C77.62045525 100.51693195 81.92329384 105.07030099 86.40234375 109.53515625 C87.08373917 110.21750839 87.76513458 110.89986053 88.46717834 111.60289001 C89.89705741 113.03344437 91.32817911 114.46275767 92.76049805 115.89086914 C94.93197711 118.05699074 97.09806325 120.22840174 99.26367188 122.40039062 C100.66374202 123.79979987 102.06412238 125.19889884 103.46484375 126.59765625 C104.41991066 127.55575951 104.41991066 127.55575951 105.39427185 128.53321838 C109.76881639 132.8854309 114.31799116 136.98194874 119 141 C120.09415086 141.95005938 121.18797223 142.90049855 122.28125 143.8515625 C137.02966237 156.58913757 152.17905479 168.61775268 168 180 C168.79390137 180.57363281 169.58780273 181.14726563 170.40576172 181.73828125 C197.47079571 201.22994564 226.24225353 217.98513087 256 233 C257.09812012 233.55445801 258.19624023 234.10891602 259.32763672 234.68017578 C332.00985591 271.12930566 412.71932793 293.99841112 494 299 C494.98290009 299.06195053 494.98290009 299.06195053 495.98565674 299.12515259 C508.24468204 299.88394721 520.46839286 300.2045667 532.75 300.1875 C533.63562622 300.18656342 534.52125244 300.18562683 535.43371582 300.18466187 C600.8402761 300.03630956 666.00987672 287.57872436 728 267 C729.19093262 266.60844727 730.38186523 266.21689453 731.60888672 265.81347656 C806.15827968 241.18528631 876.72880899 203.57489626 937.27197266 153.42382812 C938.8308644 152.13936123 940.40480439 150.87321063 941.98046875 149.609375 C947.61022401 145.0925728 952.97288543 140.35873302 958.23510742 135.42358398 C960.96590503 132.8631064 963.7294859 130.3704581 966.578125 127.94140625 C972.07688046 123.15337429 977.18379897 117.96551186 982.32739258 112.80297852 C984.058947 111.066064 985.79578359 109.33456111 987.53320312 107.60351562 C993.23636167 101.90413702 998.79124141 96.1607778 1004 90 C1005.03304915 88.81976693 1006.06820079 87.64137077 1007.10546875 86.46484375 C1023.58197255 67.64815284 1038.53944707 47.85540505 1052.4375 27.0625 C1052.81440979 26.50026733 1053.19131958 25.93803467 1053.57965088 25.35876465 C1058.21147532 18.43547 1062.55275585 11.45817588 1066.57446289 4.16577148 C1067.28010376 3.0937146 1067.28010376 3.0937146 1068 2 C1068.66 2 1069.32 2 1070 2 C1061.23304727 79.85789476 1037.78990024 153.22481478 984 255 C983.22946289 256.26021973 983.22946289 256.26021973 982.44335938 257.54589844 C965.54997057 285.05458098 946.61573756 311.35856285 925.6328125 335.89453125 C923.11661783 338.84420349 920.68107031 341.85470418 918.25 344.875 C915.26624046 348.54364384 912.18702021 351.94747233 908.77809143 355.22096252 C907.02006932 356.97992 905.40680116 358.80386638 903.79272461 360.69506836 C900.01442261 365.04085253 896.01794787 369.12658009 891.94140625 373.19140625 C890.81943092 374.31481667 890.81943092 374.31481667 889.67478943 375.46092224 C888.10367536 377.03271225 886.53131608 378.60325849 884.95776367 380.17260742 C882.56900154 382.55601304 880.18562554 384.94471068 877.80273438 387.33398438 C876.2659455 388.87011237 874.7288464 390.40593009 873.19140625 391.94140625 C872.48907364 392.64576309 871.78674103 393.35011993 871.06312561 394.07582092 C866.5349651 398.58291443 861.84779212 402.84032657 857 407 C855.83219971 408.02214378 854.66536097 409.04538849 853.5 410.0703125 C838.20376969 423.44665006 822.35592453 435.94454176 806 448 C805.21802246 448.57814453 804.43604492 449.15628906 803.63037109 449.75195312 C793.00710031 457.58838663 782.17398046 464.97333616 771 472 C770.20255371 472.50499023 769.40510742 473.00998047 768.58349609 473.53027344 C695.74321373 519.59583438 615.29179415 552.46278523 448 580 C447.33781464 580.04732269 446.67562927 580.09464539 445.99337769 580.1434021 C432.43775632 581.09026902 418.89717024 581.20104166 405.3125 581.1875 C404.1886087 581.18689575 403.06471741 581.1862915 401.9067688 581.18566895 C383.85814167 581.15940778 365.97512209 580.75669763 348 579 C347.34759338 578.93683594 346.69518677 578.87367188 346.02301025 578.80859375 C268.50420255 571.23876912 167.96073479 553.89861608 109.21875 499.06640625 C107.23694207 497.22067316 105.20396784 495.48389326 103.125 493.75 C80.32481852 473.74823113 65.5256408 446.16362325 51 420 C50.37279053 418.87754883 50.37279053 418.87754883 49.73291016 417.73242188 C36.70035743 394.2580935 26.04069107 369.25373293 17 344 C16.6567569 343.04821869 16.6567569 343.04821869 16.30657959 342.07720947 C-0.62116545 295.08091621 -10.9565658 246.64000112 -16 197 C-16.11859375 195.86014648 -16.2371875 194.72029297 -16.359375 193.54589844 C-21.70254201 139.74847579 -18.00273062 84.55527175 -7.5 31.625 C-7.35647095 30.89978149 -7.21294189 30.17456299 -7.06506348 29.42736816 C-5.08461648 19.50476868 -2.71793681 9.74750975 0 0 Z " fill="#F2B01C" transform="translate(284,791)"/>
<path d="M0 0 C1.31360504 -0.00696899 2.62721008 -0.01393799 3.98062134 -0.02111816 C8.21494943 -0.04047035 12.44922628 -0.04529617 16.68359375 -0.046875 C17.7636286 -0.04775871 17.7636286 -0.04775871 18.86548233 -0.04866028 C40.76997342 -0.06132856 62.36631186 0.40694251 84.12109375 3.203125 C86.53249953 3.48482519 88.94395812 3.76607376 91.35546875 4.046875 C153.40815831 11.63403012 213.84351662 30.1752542 270.12109375 57.203125 C271.21599121 57.72600098 272.31088867 58.24887695 273.43896484 58.78759766 C307.23219698 75.01582355 339.88876613 94.71258798 369.43261719 117.87939453 C371.17719897 119.24711032 372.93334494 120.59888618 374.69140625 121.94921875 C386.8354386 131.32539467 398.35930015 141.37012041 409.60058594 151.8046875 C411.23294872 153.30599996 412.88211258 154.78712632 414.53515625 156.265625 C415.09315918 156.76763428 415.65116211 157.26964355 416.22607422 157.78686523 C417.30207127 158.7541128 418.38169405 159.71734597 419.46533203 160.67602539 C420.72184099 161.81110701 421.92693831 163.00261767 423.12109375 164.203125 C423.12109375 164.863125 423.12109375 165.523125 423.12109375 166.203125 C421.9307251 166.27305664 420.74035645 166.34298828 419.51391602 166.41503906 C327.82660419 171.86817551 241.84010549 191.81081608 76.12109375 282.203125 C75.3537793 282.7408252 74.58646484 283.27852539 73.79589844 283.83251953 C63.46446452 291.10562166 53.53867764 298.75709762 43.80908203 306.81494141 C41.58478435 308.64418014 39.32289438 310.4237652 37.05859375 312.203125 C19.72924501 326.05501245 3.81168705 341.4279146 -11.87890625 357.078125 C-12.46957886 357.66611877 -13.06025146 358.25411255 -13.66882324 358.85992432 C-19.96278239 365.13222542 -26.12025272 371.42908657 -31.87890625 378.203125 C-33.29214175 379.7479376 -34.70831034 381.29007825 -36.12890625 382.828125 C-40.67613076 387.86777314 -44.84413055 393.15083364 -49 398.51171875 C-50.90277636 400.96425809 -52.83092107 403.39222146 -54.7890625 405.80078125 C-92.07980539 451.67857362 -121.14111194 503.94127574 -141.87890625 559.203125 C-142.14680969 559.91573486 -142.41471313 560.62834473 -142.69073486 561.36254883 C-165.87550987 623.21449596 -180.02716286 688.33347483 -184.87890625 754.203125 C-184.92729645 754.85631714 -184.97568665 755.50950928 -185.02554321 756.18249512 C-186.03282464 770.26290022 -186.0795845 784.34214683 -186.06640625 798.453125 C-186.06549988 800.24792297 -186.06549988 800.24792297 -186.0645752 802.07897949 C-186.03974444 820.20967137 -185.70279822 838.15236471 -183.87890625 856.203125 C-183.69352295 858.12970947 -183.69352295 858.12970947 -183.50439453 860.09521484 C-177.07206552 926.06746327 -160.26220068 991.20756948 -131.87890625 1051.203125 C-131.40420898 1052.21665039 -130.92951172 1053.23017578 -130.44042969 1054.27441406 C-122.85590601 1070.60781091 -122.85590601 1070.60781091 -113.98828125 1086.26171875 C-112.87890625 1088.203125 -112.87890625 1088.203125 -112.87890625 1090.203125 C-141.26496025 1077.27022656 -167.1921409 1046.9587331 -188.94140625 1025.265625 C-189.53021576 1024.67949432 -190.11902527 1024.09336365 -190.72567749 1023.48947144 C-196.9990971 1017.23771714 -203.1584328 1010.97224209 -208.87890625 1004.203125 C-209.90030647 1003.03467431 -210.92373571 1001.86799408 -211.94921875 1000.703125 C-243.41296616 964.72414872 -270.17695351 925.24567409 -292.87890625 883.203125 C-293.56654053 881.93855469 -293.56654053 881.93855469 -294.26806641 880.6484375 C-335.21455405 805.04639466 -358.82446804 720.47130349 -342.18359375 362.83203125 C-327.29166513 313.06430708 -306.38878382 264.39286546 -279.51513672 219.91992188 C-277.90020724 217.23849316 -276.31017224 214.54377237 -274.7265625 211.84375 C-268.5280318 201.31514522 -261.9467132 191.16640159 -254.87890625 181.203125 C-254.06074494 180.03547352 -253.24302678 178.86751138 -252.42578125 177.69921875 C-243.12045481 164.46460141 -233.26623827 151.60618054 -222.87890625 139.203125 C-222.45931641 138.69861816 -222.03972656 138.19411133 -221.60742188 137.67431641 C-215.77429294 130.66391729 -209.79327714 123.83038573 -203.58203125 117.15234375 C-201.61694784 115.03484389 -199.73375789 112.86202186 -197.859375 110.6640625 C-193.05582613 105.15426282 -187.85757514 100.0324348 -182.68188477 94.87573242 C-180.94497025 93.144178 -179.21346736 91.40734141 -177.48242188 89.66992188 C-171.78216519 83.96624339 -166.03010182 78.42437021 -159.87890625 73.203125 C-158.27122252 71.74866983 -156.6665091 70.29091605 -155.06640625 68.828125 C-149.81704594 64.09731852 -144.38201859 59.63401803 -138.87890625 55.203125 C-137.73398652 54.26609947 -136.58947367 53.32857662 -135.4453125 52.390625 C-95.80323524 20.05873619 -51.79101488 0.18409179 0 0 Z " fill="#8D2675" transform="translate(405.87890625,143.796875)"/>
<path d="M0 0 C0.66 0 1.32 0 2 0 C1.34 5.94 0.68 11.88 0 18 C-0.33 17.01 -0.66 16.02 -1 15 C-1.99 15 -2.98 15 -4 15 C-4 14.34 -4 13.68 -4 13 C-4.66 13 -5.32 13 -6 13 C-5.34215037 9.70319035 -4.10579427 7.15882078 -2.4375 4.25 C-1.98246094 3.45078125 -1.52742188 2.6515625 -1.05859375 1.828125 C-0.53458984 0.92320312 -0.53458984 0.92320312 0 0 Z " fill="#EBB027" transform="translate(1352,793)"/>
<path d="M0 0 C1 4 1 4 0 7 C-3.3 7 -6.6 7 -10 7 C-10 6.34 -10 5.68 -10 5 C-6.7 3.35 -3.4 1.7 0 0 Z " fill="#ECB029" transform="translate(1126,1009)"/>
<path d="M0 0 C1.7074998 1.28062485 3.37373596 2.61767557 5 4 C5 4.66 5 5.32 5 6 C0.71 6 -3.58 6 -8 6 C-8 5.67 -8 5.34 -8 5 C-5.36 5 -2.72 5 0 5 C0 3.35 0 1.7 0 0 Z " fill="#7F2E6E" transform="translate(824,304)"/>
<path d="M0 0 C0.33 0 0.66 0 1 0 C1.38095238 10.8994709 1.38095238 10.8994709 -1 15 C-1.99 15.495 -1.99 15.495 -3 16 C-2.01 10.72 -1.02 5.44 0 0 Z " fill="#862A67" transform="translate(52,551)"/>
<path d="M0 0 C0.33 0.66 0.66 1.32 1 2 C-0.65 3.65 -2.3 5.3 -4 7 C-4.33 6.34 -4.66 5.68 -5 5 C-5.99 4.34 -6.98 3.68 -8 3 C-5.36 2.01 -2.72 1.02 0 0 Z " fill="#E03936" transform="translate(472,81)"/>
<path d="M0 0 C0.33 0.66 0.66 1.32 1 2 C-3.88077452 4.44038726 -6.52667068 5.46845421 -12 4 C-8.20458337 1.78600697 -4.24370579 0.99019802 0 0 Z " fill="#E1393E" transform="translate(550,57)"/>
<path d="M0 0 C1.33332095 2.6666419 0.67102033 4.16680303 0 7 C-1.98 7.33 -3.96 7.66 -6 8 C-4.55746343 4.63408134 -2.66735273 2.48952921 0 0 Z " fill="#ECB02B" transform="translate(1288,881)"/>
<path d="M0 0 C-3.82517513 2.39073445 -7.59665524 2.55966552 -12 3 C-12 2.34 -12 1.68 -12 1 C-8.00439392 -1.83022097 -4.57262677 -0.76210446 0 0 Z " fill="#882A68" transform="translate(712,323)"/>
<path d="M0 0 C0 0.99 0 1.98 0 3 C-0.99 3.33 -1.98 3.66 -3 4 C-3.33 4.66 -3.66 5.32 -4 6 C-5.98 6 -7.96 6 -10 6 C-7.27521226 2.63408573 -3.93143208 1.55773724 0 0 Z " fill="#E13734" transform="translate(452,89)"/>
<path d="M0 0 C0.99 0 1.98 0 3 0 C2.67 0.99 2.34 1.98 2 3 C-4.93 2.505 -4.93 2.505 -12 2 C-12 1.67 -12 1.34 -12 1 C-11.21753906 1.01160156 -10.43507813 1.02320312 -9.62890625 1.03515625 C-8.61699219 1.04417969 -7.60507812 1.05320312 -6.5625 1.0625 C-5.04849609 1.07990234 -5.04849609 1.07990234 -3.50390625 1.09765625 C-1.05978933 1.28612676 -1.05978933 1.28612676 0 0 Z " fill="#DD3A3A" transform="translate(501,96)"/>
<path d="M0 0 C0.66 0 1.32 0 2 0 C2.33 1.65 2.66 3.3 3 5 C0.525 6.485 0.525 6.485 -2 8 C-2 6.68 -2 5.36 -2 4 C-1.34 4 -0.68 4 0 4 C0 2.68 0 1.36 0 0 Z " fill="#E7B51F" transform="translate(1042,1264)"/>
<path d="M0 0 C0.66 0 1.32 0 2 0 C2.33 1.65 2.66 3.3 3 5 C0.525 6.485 0.525 6.485 -2 8 C-2 6.68 -2 5.36 -2 4 C-1.34 4 -0.68 4 0 4 C0 2.68 0 1.36 0 0 Z " fill="#E8B421" transform="translate(1130,1200)"/>
<path d="M0 0 C0.99 0.33 1.98 0.66 3 1 C3.6875 3.0625 3.6875 3.0625 4 5 C3.01 5.33 2.02 5.66 1 6 C0.34 5.67 -0.32 5.34 -1 5 C-0.67 3.35 -0.34 1.7 0 0 Z " fill="#E7B225" transform="translate(284,791)"/>
<path d="M0 0 C2 2 2 2 2 6 C1.34 6 0.68 6 0 6 C0 7.32 0 8.64 0 10 C-0.66 10 -1.32 10 -2 10 C-1.34 6.7 -0.68 3.4 0 0 Z " fill="#D83C3B" transform="translate(1028,882)"/>
<path d="M0 0 C0.66 0 1.32 0 2 0 C2 1.98 2 3.96 2 6 C0.02 6.99 0.02 6.99 -2 8 C-2 6.68 -2 5.36 -2 4 C-1.34 4 -0.68 4 0 4 C0 2.68 0 1.36 0 0 Z " fill="#822B76" transform="translate(434,456)"/>
<path d="M0 0 C4.95 0.99 4.95 0.99 10 2 C9.34 2.66 8.68 3.32 8 4 C6.68 4 5.36 4 4 4 C4 3.34 4 2.68 4 2 C2.68 2 1.36 2 0 2 C0 1.34 0 0.68 0 0 Z " fill="#DA3B3B" transform="translate(860,66)"/>
<path d="M0 0 C1.98 0 3.96 0 6 0 C6 1.65 6 3.3 6 5 C3.98079663 3.69593116 1.98075027 2.36176581 0 1 C0 0.67 0 0.34 0 0 Z " fill="#832C6E" transform="translate(272,1218)"/>
<path d="M0 0 C0.33 0 0.66 0 1 0 C1.33 3.3 1.66 6.6 2 10 C1.01 10 0.02 10 -1 10 C-0.67 6.7 -0.34 3.4 0 0 Z " fill="#832D6A" transform="translate(227,1046)"/>
<path d="M0 0 C0.66 0.33 1.32 0.66 2 1 C0.515 4.96 0.515 4.96 -1 9 C-1.66 8.34 -2.32 7.68 -3 7 C-3 6.01 -3 5.02 -3 4 C-2.34 4 -1.68 4 -1 4 C-0.67 2.68 -0.34 1.36 0 0 Z " fill="#8C2967" transform="translate(269,684)"/>
<path d="M0 0 C0 0.99 0 1.98 0 3 C-2.5 5.1875 -2.5 5.1875 -5 7 C-5 5.35 -5 3.7 -5 2 C-4.360625 1.855625 -3.72125 1.71125 -3.0625 1.5625 C-1.02454854 1.18992819 -1.02454854 1.18992819 0 0 Z " fill="#EEAF29" transform="translate(1205,1130)"/>
<path d="M0 0 C0.33 0 0.66 0 1 0 C0.67 2.31 0.34 4.62 0 7 C-0.99 7.33 -1.98 7.66 -3 8 C-2.37240135 5.07120629 -1.41377341 2.63904371 0 0 Z " fill="#DD3A35" transform="translate(976,1014)"/>
</svg>
