<?xml version="1.0" encoding="UTF-8"?>
<svg version="1.1" xmlns="http://www.w3.org/2000/svg" width="512" height="512">
<path d="M0 0 C3.64364263 0.91091066 6.22136866 2.01979052 9.5234375 3.73828125 C10.6155957 4.30498535 11.70775391 4.87168945 12.83300781 5.45556641 C14.00186523 6.06835449 15.17072266 6.68114258 16.375 7.3125 C17.5972671 7.94982908 18.81959858 8.58703469 20.04199219 9.22412109 C28.39092148 13.58567428 36.67611473 18.05870281 44.92919922 22.59887695 C51.40762564 26.15557909 57.93816967 29.59989922 64.5 33 C72.97261402 37.39061432 81.36694659 41.90544705 89.73046875 46.5 C96.2769072 50.08606614 102.87290471 53.56554849 109.5 57 C116.81742414 60.79367585 124.08895098 64.65550331 131.3125 68.625 C140.70102248 73.78152911 150.15364778 78.81042695 159.625 83.8125 C171.27595543 89.9661974 182.90844671 96.15148334 194.51757812 102.38378906 C203.3733683 107.13536808 212.24669517 111.85316469 221.125 116.5625 C231.81701608 122.2342727 242.48722392 127.9443168 253.13769531 133.69384766 C262.37963861 138.6778045 271.65092817 143.60540669 280.92675781 148.52587891 C291.43785806 154.10191994 301.93242749 159.70766865 312.41699219 165.33349609 C321.30696944 170.10056711 330.21372079 174.83540781 339.125 179.5625 C349.81698026 185.23434096 360.48722325 190.94431644 371.13769531 196.69384766 C380.37963861 201.6778045 389.65092817 206.60540669 398.92675781 211.52587891 C409.42396482 217.0945497 419.90508946 222.69209865 430.37524414 228.31152344 C436.78039909 231.74676191 443.1924727 235.16834616 449.61328125 238.57421875 C450.33925507 238.95937653 451.06522888 239.3445343 451.8132019 239.74136353 C455.3517854 241.61833585 458.89116204 243.49379237 462.43164062 245.3671875 C463.72136887 246.05075351 465.0110831 246.73434597 466.30078125 247.41796875 C467.42653564 248.01375732 468.55229004 248.6095459 469.7121582 249.22338867 C473.17556043 251.09486547 476.5894954 253.03411608 480 255 C480 255.66 480 256.32 480 257 C479.17725586 257.43642822 478.35451172 257.87285645 477.50683594 258.32250977 C462.99141556 266.02389201 448.47944566 273.73113149 434 281.5 C424.01311153 286.85827838 414.01134039 292.18759734 404 297.5 C389.31237678 305.2944656 374.6517582 313.13828517 360 321 C344.66990458 329.2256912 329.32797769 337.42766189 313.96008301 345.5824585 C303.48979638 351.13881858 293.03558674 356.72420488 282.59130859 362.3293457 C276.37280203 365.66437373 270.14827393 368.98741105 263.9140625 372.29296875 C263.23115646 372.65506943 262.54825043 373.0171701 261.84465027 373.39024353 C259.08440596 374.85364043 256.32410085 376.31692262 253.56375122 377.78012085 C244.27576319 382.70541567 235.02650049 387.69461323 225.81103516 392.75463867 C218.46303622 396.77689764 211.04042925 400.64693641 203.60327148 404.5012207 C197.02320005 407.92018461 190.49906799 411.42969656 184 415 C176.5470628 419.09431743 169.04987063 423.08732583 161.5 427 C154.18257586 430.79367585 146.91104902 434.65550331 139.6875 438.625 C130.29897752 443.78152911 120.84635222 448.81042695 111.375 453.8125 C100.85911564 459.36668571 90.35316087 464.93740587 79.875 470.5625 C70.60686202 475.53761302 61.32692412 480.489481 52.0350647 485.42010498 C41.3651086 491.08205394 30.69780283 496.74893785 20.0456543 502.44433594 C18.8177522 503.10063678 17.58956699 503.75640826 16.36108398 504.41162109 C14.67090521 505.31326745 12.98190741 506.21712658 11.29296875 507.12109375 C10.3393042 507.6308374 9.38563965 508.14058105 8.40307617 508.66577148 C5.85578708 510.03758862 5.85578708 510.03758862 3 512 C2.01 512 1.02 512 0 512 C0 343.04 0 174.08 0 0 Z " fill="#000000" transform="translate(16,0)"/>
</svg>
