<?xml version="1.0" encoding="UTF-8"?>
<svg version="1.1" xmlns="http://www.w3.org/2000/svg" width="512" height="512">
<path d="M0 0 C1.64586594 -0.0076664 1.64586594 -0.0076664 3.32498169 -0.01548767 C6.94180819 -0.02934948 10.55844309 -0.02842771 14.17529297 -0.02612305 C16.7119046 -0.03001524 19.24851558 -0.03435098 21.78512573 -0.03910828 C27.10612361 -0.04656572 32.42705228 -0.04642493 37.74804688 -0.04101562 C43.83949838 -0.03501633 49.93071652 -0.04718751 56.02212822 -0.06858569 C61.93596436 -0.08857374 67.84971185 -0.09134512 73.76357651 -0.08785057 C76.25179462 -0.08835816 78.7400169 -0.09348797 81.22821426 -0.10366249 C130.7375091 -0.28109094 173.70432374 13.52309987 209.79248047 48.2746582 C210.42154297 48.8521582 211.05060547 49.4296582 211.69873047 50.0246582 C237.51025666 74.37515461 255.433618 114.00229969 256.92670155 149.46234703 C256.93311177 151.10089873 256.93311177 151.10089873 256.93965149 152.77255249 C256.95038445 154.66856201 256.95038445 154.66856201 256.96133423 156.60287476 C256.96417387 157.98614477 256.96688568 159.36941505 256.96948242 160.75268555 C256.97575586 162.22365476 256.98240343 163.69462241 256.98939514 165.16558838 C257.01034318 169.9805798 257.02079276 174.79557118 257.03076172 179.6105957 C257.03481353 181.27656698 257.03893057 182.9425381 257.0431118 184.60850906 C257.06214764 192.44295965 257.07637883 200.27740094 257.08472377 208.11187017 C257.09447323 217.11318201 257.12073936 226.11424645 257.16122466 235.11547124 C257.19154222 242.09926175 257.20620758 249.082982 257.20950478 256.06683695 C257.21183856 260.22514462 257.2205772 264.38318757 257.24596596 268.5414238 C257.43843793 301.7967269 257.43843793 301.7967269 252.79248047 315.2746582 C252.57324732 315.92364452 252.35401417 316.57263084 252.12813759 317.24128342 C243.19445644 343.48126552 224.78438458 363.06324665 200.13232422 375.2980957 C184.53099328 382.64277602 168.34752371 384.63288452 151.22998047 384.6496582 C149.910625 384.67415039 148.59126953 384.69864258 147.23193359 384.72387695 C135.73126271 384.75805428 125.69755577 382.87233115 116.76123047 375.24731445 C106.03714804 364.50195408 105.3413213 351.55391719 105.28076172 337.10668945 C105.26387962 335.57539973 105.24572475 334.04412356 105.22636414 332.51286316 C105.17924052 328.51980836 105.14918952 324.52680853 105.1229248 320.53356934 C105.09292723 316.44389999 105.04646387 312.3544195 105.00146484 308.26489258 C104.91586111 300.26824143 104.84832718 292.27157233 104.79248047 284.2746582 C102.96136719 283.82026367 102.96136719 283.82026367 101.09326172 283.35668945 C91.36924079 280.89773026 82.05036197 278.18058667 72.79248047 274.2746582 C72.77846191 276.14214722 72.77846191 276.14214722 72.76416016 278.04736328 C72.72397336 282.71258968 72.65813748 287.37717635 72.58496094 292.04199219 C72.55691653 294.05232459 72.53562068 296.06276388 72.52148438 298.07324219 C72.40940167 313.11847782 72.12773409 324.76836135 61.16357422 336.1105957 C54.60853627 342.09328273 47.74446276 345.49837433 38.73730469 345.56518555 C37.56102509 345.57794525 36.38474548 345.59070496 35.17282104 345.60385132 C33.91035553 345.60607697 32.64789001 345.60830261 31.34716797 345.6105957 C30.01359929 345.6170405 28.68003196 345.62377003 27.34646606 345.63076782 C24.5473505 345.64272509 21.74835803 345.64645131 18.94921875 345.64526367 C16.11952758 345.64510255 13.29049356 345.65875828 10.4609375 345.6862793 C-27.85366253 346.05360495 -59.71631889 338.13911819 -88.20751953 311.2746582 C-88.94615234 310.61208008 -89.68478516 309.94950195 -90.44580078 309.2668457 C-110.68496296 290.35778832 -123.44766717 260.61380162 -124.39863205 233.0725193 C-124.50478415 228.1900365 -124.50120244 223.3077212 -124.49804688 218.42431641 C-124.50404312 216.55687189 -124.51085116 214.68942984 -124.5184021 212.82199097 C-124.53594815 207.78711249 -124.54075236 202.75230213 -124.54203367 197.71739602 C-124.54346121 194.56621558 -124.54774194 191.41505215 -124.55302811 188.26387596 C-124.57148377 177.25565883 -124.57970348 166.24748991 -124.578125 155.23925781 C-124.57692167 144.99909059 -124.59807299 134.75913346 -124.62961233 124.51901942 C-124.65579125 115.70337733 -124.66649176 106.88780388 -124.66521418 98.07212323 C-124.66470545 92.81701724 -124.67034092 87.56209867 -124.69157028 82.30703163 C-124.71098239 77.36810245 -124.7110568 72.42953912 -124.69653702 67.49059677 C-124.69445221 65.68387884 -124.69913017 63.87713779 -124.71125793 62.07045937 C-124.79383255 48.91243073 -123.5125098 38.29044634 -114.20751953 28.2746582 C-106.1922993 20.65674415 -97.3460619 18.71767403 -86.49658203 18.98950195 C-70.61400693 19.90772533 -55.35865482 22.43471221 -40.20751953 27.2746582 C-40.02576172 25.91147461 -40.02576172 25.91147461 -39.84033203 24.52075195 C-38.38523658 17.05665121 -32.99239259 10.99137005 -27.20751953 6.2746582 C-18.71704107 0.80187992 -9.85919848 -0.02391452 0 0 Z M-11.85221863 31.34620667 C-13.49498405 34.895794 -13.76329329 37.90795398 -13.70922852 41.74511719 C-13.7146315 42.48104095 -13.72003448 43.21696472 -13.7256012 43.97518921 C-13.73809649 46.40745432 -13.72156583 48.83853508 -13.70361328 51.27075195 C-13.70376853 52.98210206 -13.70526181 54.69345252 -13.70802307 56.40480042 C-13.70940838 60.00195777 -13.69684924 63.5987172 -13.67407227 67.19580078 C-13.64604704 71.74010692 -13.64860629 76.28374068 -13.66076279 80.82809448 C-13.77116737 132.27120333 -3.53600702 176.74844564 33.54248047 214.4621582 C40.73484786 221.5925151 48.31539236 227.74397964 56.79248047 233.2746582 C57.44796875 233.70472168 58.10345703 234.13478516 58.77880859 234.57788086 C78.13210486 247.07183993 100.85033167 255.58589682 123.79248047 258.2746582 C124.47213867 258.3586084 125.15179688 258.44255859 125.85205078 258.52905273 C132.12068771 259.20817561 138.36099278 259.38955032 144.65966797 259.4855957 C145.54813919 259.49993652 146.43661041 259.51427734 147.352005 259.52905273 C151.06877025 259.58673257 154.78538091 259.64145404 158.50244141 259.67602539 C161.24271464 259.70360884 163.98219918 259.74941438 166.72216797 259.7980957 C167.97693436 259.80297501 167.97693436 259.80297501 169.25704956 259.80795288 C173.92261489 259.90641789 176.99423567 260.27980244 180.79248047 263.2746582 C184.20077412 267.23564812 185.40601173 270.20584652 185.11279297 275.31762695 C184.44137891 279.41980311 183.00572484 282.28645466 179.78393555 284.91064453 C175.55196226 286.84029725 171.71894944 286.75344126 167.11669922 286.78637695 C165.72896049 286.81330376 165.72896049 286.81330376 164.31318665 286.84077454 C161.36883044 286.89479899 158.42463563 286.92874811 155.47998047 286.9621582 C153.47930701 286.99533821 151.47865482 287.0298285 149.47802734 287.06567383 C144.58296163 287.15052105 139.68794314 287.21736986 134.79248047 287.2746582 C134.6997769 295.55008116 134.62871431 303.82528698 134.58523178 312.10110092 C134.56436163 315.94397072 134.53605541 319.78648513 134.49072266 323.62915039 C134.44724302 327.33796936 134.42333905 331.04644662 134.4129715 334.75550079 C134.40558379 336.17012155 134.39115704 337.58472373 134.36956024 338.99919891 C134.34050432 340.98113243 134.33884639 342.9634102 134.33837891 344.94555664 C134.32949646 346.07362732 134.32061401 347.201698 134.3114624 348.36395264 C134.90193155 351.93696155 135.94629677 353.10260048 138.79248047 355.2746582 C141.6146729 355.88762863 141.6146729 355.88762863 144.74560547 355.8059082 C145.91478516 355.81412598 147.08396484 355.82234375 148.28857422 355.83081055 C149.52736328 355.81228027 150.76615234 355.79375 152.04248047 355.7746582 C153.30705078 355.76257324 154.57162109 355.75048828 155.87451172 355.73803711 C174.39166024 355.3463282 189.47584735 350.31052252 203.79248047 338.2746582 C205.03771484 337.31172852 205.03771484 337.31172852 206.30810547 336.3293457 C219.1579153 325.70198726 226.59309277 307.97365487 228.57590485 291.74209976 C229.01805461 286.70469675 228.94878923 281.65165258 228.95361328 276.59838867 C228.95857819 275.34508759 228.96354309 274.0917865 228.96865845 272.80050659 C228.9807154 269.37810912 228.98821327 265.95577237 228.99266911 262.53336096 C228.99561669 260.38365901 228.99972483 258.23396218 229.00417328 256.08426285 C229.01783572 249.32568352 229.02750489 242.56711618 229.03137517 235.80852401 C229.03583374 228.06945755 229.05328365 220.33056965 229.08237576 212.59155738 C229.10419996 206.57156562 229.11409057 200.55162327 229.11541629 194.53159249 C229.11645093 190.9550112 229.12206328 187.37859793 229.1402359 183.80205917 C229.31495476 147.26956437 224.68986515 113.02134752 201.79248047 83.2746582 C200.69613281 81.84573242 200.69613281 81.84573242 199.57763672 80.38793945 C183.30934788 59.88818006 162.47215772 44.91936283 137.79248047 36.2746582 C136.73931641 35.89696289 135.68615234 35.51926758 134.60107422 35.13012695 C116.59341603 29.11254906 98.60191711 28.79952189 79.80029297 28.8059082 C77.23485145 28.79879356 74.66941149 28.79109269 72.10397339 28.78283691 C66.76718064 28.76948322 61.43054255 28.76760163 56.09375 28.77368164 C49.9322851 28.78037067 43.77141145 28.75722333 37.61006653 28.72036791 C31.64808796 28.68600941 25.686293 28.67932854 19.72420883 28.68345642 C17.19877212 28.68176242 14.67332772 28.67209318 12.14795303 28.65431213 C8.63460527 28.63225881 5.12271631 28.64175015 1.609375 28.65942383 C0.56734924 28.64616058 -0.47467651 28.63289734 -1.54827881 28.61923218 C-7.13227285 28.63725586 -7.13227285 28.63725586 -11.85221863 31.34620667 Z M-95.20751953 50.2746582 C-95.40922834 52.72012048 -95.48561676 55.05300757 -95.47494507 57.50001526 C-95.47947618 58.25335378 -95.48400729 59.0066923 -95.48867571 59.78285927 C-95.50139139 62.32128397 -95.49969467 64.85949608 -95.49804688 67.39794922 C-95.50402834 69.21300535 -95.51083299 71.02805893 -95.5184021 72.84310913 C-95.53612488 77.78820282 -95.54076058 82.73322736 -95.54203367 87.67834973 C-95.5434542 90.77240485 -95.54772231 93.86644234 -95.55302811 96.96049309 C-95.57156085 107.76924633 -95.57969613 118.57795015 -95.578125 129.38671875 C-95.5769281 139.43395513 -95.59793298 149.4809751 -95.62961233 159.52815682 C-95.65587457 168.16789202 -95.66648789 176.8075571 -95.66521418 185.44733185 C-95.66470674 190.60054513 -95.6702663 195.75356692 -95.69157028 200.90674019 C-95.71111632 205.76839379 -95.7109667 210.62967681 -95.69653702 215.49134445 C-95.69446676 217.26286175 -95.69904151 219.03440321 -95.71125793 220.80587959 C-95.88503289 247.78331323 -87.40759355 270.78561986 -68.20751953 290.2746582 C-48.87213822 309.64237293 -24.31073286 317.30269972 2.55810547 317.51293945 C3.55453064 317.5210112 4.55095581 317.52908295 5.57757568 317.53739929 C7.66839912 317.55114096 9.75924405 317.56190677 11.85009766 317.56982422 C13.98558132 317.58141946 16.12103435 317.60198791 18.25634766 317.63134766 C21.35713188 317.67389905 24.45706612 317.69016684 27.55810547 317.70043945 C28.5102594 317.71794754 29.46241333 317.73545563 30.44342041 317.75349426 C34.71316472 317.739483 37.14085237 317.66411508 40.86962891 315.43554688 C46.52896093 309.07562461 44.4346498 296.34584516 44.58203125 288.32592773 C44.63876443 285.88510435 44.72059875 283.44472892 44.828125 281.00561523 C45.9877026 268.22750272 45.9877026 268.22750272 42.5559082 256.31921387 C39.17009932 252.87982013 35.20035982 251.17280974 30.79248047 249.2746582 C-6.05740052 223.00549794 -31.10234339 178.91987475 -38.64038086 134.67016602 C-40.5882108 122.37942173 -41.32974225 110.06647311 -41.52392578 97.63012695 C-41.54470688 96.49432693 -41.56548798 95.35852692 -41.5868988 94.18830872 C-41.65150644 90.61297779 -41.71085974 87.03758298 -41.77001953 83.4621582 C-41.81328952 81.01618845 -41.85690627 78.5702248 -41.90087891 76.12426758 C-42.00709464 70.17446239 -42.10901398 64.22459578 -42.20751953 58.2746582 C-49.00996931 55.29907865 -55.62518812 52.58272708 -62.89501953 51.0246582 C-63.99088379 50.78054199 -63.99088379 50.78054199 -65.10888672 50.53149414 C-81.00576387 46.69119639 -81.00576387 46.69119639 -95.20751953 50.2746582 Z " fill="#000000" transform="translate(188.20751953125,66.725341796875)"/>
<path d="M0 0 C4.65317575 4.90469876 7.57730881 10.68499818 7.875 17.5 C7.49888881 23.96504644 5.39496711 29.91621586 0.5 34.3125 C-5.85802833 38.55118555 -11.12571639 40.36476535 -18.6875 39.4375 C-25.18100815 38.10024693 -29.77392914 34.75541291 -33.6875 29.4375 C-37.01934145 23.26615105 -37.31511644 17.19491445 -35.6875 10.4375 C-33.6226917 4.78997027 -29.66245159 0.71573126 -24.6875 -2.5625 C-15.60419168 -6.13094255 -8.16656105 -4.74800061 0 0 Z " fill="#000000" transform="translate(368.6875,232.5625)"/>
</svg>
