<?xml version="1.0" encoding="UTF-8"?>
<svg version="1.1" xmlns="http://www.w3.org/2000/svg" width="512" height="512">
<path d="M0 0 C5.43453335 5.94442206 10.00026981 12.12460347 14.36157227 18.88549805 C15.75496373 21.00994397 17.14953358 23.13361738 18.54516602 25.2565918 C19.25527832 26.34053223 19.96539062 27.42447266 20.69702148 28.54125977 C24.21856638 33.88037622 27.81975666 39.16454866 31.42407227 44.44799805 C32.13370117 45.48964111 32.84333008 46.53128418 33.57446289 47.60449219 C35.66904436 50.67809407 37.76515236 53.7506499 39.86157227 56.82299805 C41.13118312 58.68492293 42.40071681 60.54690044 43.67016602 62.40893555 C45.51394838 65.11326306 47.3578351 67.81751895 49.20214844 70.52148438 C56.04663542 80.55712219 62.87534747 90.60347729 69.7043457 100.6496582 C73.25617581 105.87449837 76.80891579 111.09871976 80.36157227 116.32299805 C81.77824339 118.40632835 83.19491005 120.48966169 84.61157227 122.57299805 C85.31282227 123.60424805 86.01407227 124.63549805 86.73657227 125.69799805 C144.11157226 210.07299804 144.11157226 210.07299804 146.23706055 213.19873047 C147.6520818 215.27963451 149.06712083 217.36052646 150.48217773 219.44140625 C154.049166 224.68680821 157.61583384 229.93242754 161.18188477 235.1784668 C162.61676793 237.28915249 164.05166369 239.39982962 165.48657227 241.51049805 C166.18790283 242.54223145 166.8892334 243.57396484 167.61181641 244.63696289 C171.69424148 250.64105831 175.78347317 256.64043526 179.87915039 262.63549805 C182.32761586 266.22226333 184.76971092 269.81334407 187.21166992 273.40454102 C188.74707681 275.65516852 190.29315145 277.89804533 191.84204102 280.1394043 C202.31187468 295.39743187 206.22147375 307.37695998 204.86157227 325.82299805 C204.08064615 329.88757734 202.82292601 333.19043165 200.86157227 336.82299805 C200.36399414 337.75370117 199.86641602 338.6844043 199.35375977 339.64331055 C192.27469263 351.72711351 182.04877597 357.75635603 169.92407227 363.94799805 C168.49038316 364.69265653 167.05745109 365.43877415 165.62524414 366.1862793 C162.73522086 367.69387425 159.8425781 369.19624309 156.94799805 370.69506836 C151.2163136 373.67059231 145.53874899 376.7450808 139.86157227 379.82299805 C129.5329208 385.4020012 119.17094639 390.91639249 108.80004883 396.41625977 C99.80384856 401.18787858 90.82235757 405.98506782 81.86157227 410.82299805 C72.21630576 416.03047984 62.54519945 421.18736733 52.86157227 426.32299805 C43.0548509 431.52454689 33.25899389 436.74469607 23.48657227 442.01049805 C22.44887695 442.56842041 21.41118164 443.12634277 20.34204102 443.70117188 C15.41775105 446.35197372 10.5015116 449.0157099 5.6043396 451.71635437 C3.83543918 452.69087499 2.06443355 453.6614555 0.29272461 454.63085938 C-1.92219228 455.84422533 -4.13312615 457.06490394 -6.33911133 458.29443359 C-15.83840583 463.4821588 -24.14997764 466.35488821 -35.01342773 466.26049805 C-35.82166992 466.28047852 -36.62991211 466.30045898 -37.46264648 466.32104492 C-50.44433425 466.31082312 -61.42612343 459.86976423 -72.51342773 453.82299805 C-73.9360893 453.05632277 -75.35919078 452.29046328 -76.78271484 451.52539062 C-80.90836752 449.30419675 -85.0248218 447.06640787 -89.13842773 444.82299805 C-90.21141113 444.23824707 -91.28439453 443.65349609 -92.38989258 443.05102539 C-96.03645145 441.06138277 -99.68191664 439.06980631 -103.32348633 437.07104492 C-110.68027432 433.04242637 -118.11331713 429.16914157 -125.55932617 425.30859375 C-131.89921092 422.01336775 -138.18917516 418.63914135 -144.45092773 415.19799805 C-153.96103628 409.97235494 -163.5417281 404.88708528 -173.13842773 399.82299805 C-183.61019504 394.29714592 -194.05036857 388.72466513 -204.42529297 383.01831055 C-210.80145182 379.52219679 -217.24066247 376.16063113 -223.70092773 372.82299805 C-231.36356804 368.84360598 -238.97949378 364.7916244 -246.51342773 360.57299805 C-247.35075439 360.1140918 -248.18808105 359.65518555 -249.05078125 359.18237305 C-257.67673549 354.28851042 -264.8093579 348.55040958 -269.57592773 339.76049805 C-270.21401367 338.61452148 -270.85209961 337.46854492 -271.50952148 336.2878418 C-276.51313653 325.64466064 -277.40905355 311.07560773 -273.57592773 299.82299805 C-272.82019276 298.12983572 -272.00549666 296.46193841 -271.13842773 294.82299805 C-270.40946289 293.42114258 -270.40946289 293.42114258 -269.66577148 291.9909668 C-266.21006739 285.75762821 -262.2071272 279.97844199 -258.02685547 274.22143555 C-255.11430314 270.20996045 -252.3073684 266.14722022 -249.57592773 262.01049805 C-245.12953778 255.28618556 -240.61269944 248.61165337 -236.07592773 241.94799805 C-235.34817139 240.8789624 -234.62041504 239.80992676 -233.87060547 238.70849609 C-232.37265286 236.50858775 -230.87453519 234.30879266 -229.3762207 232.10913086 C-225.79416338 226.84898558 -222.21644855 221.58588944 -218.63842773 216.32299805 C-217.22178334 214.23964957 -215.80511664 212.15631626 -214.38842773 210.07299805 C-213.33655273 208.52612305 -213.33655273 208.52612305 -212.26342773 206.94799805 C-209.07592773 202.26049805 -209.07592773 202.26049805 -205.88842773 197.57299805 C-205.1870166 196.54150635 -204.48560547 195.51001465 -203.76293945 194.44726562 C-202.3479182 192.36636159 -200.93287917 190.28546964 -199.51782227 188.20458984 C-195.950834 182.95918788 -192.38416616 177.71356855 -188.81811523 172.4675293 C-181.48556015 161.6812345 -174.14712525 150.89901163 -166.79760742 140.12426758 C-159.95337964 130.08858971 -153.1245891 120.0424255 -146.2956543 109.99633789 C-142.74382419 104.77149772 -139.19108421 99.54727633 -135.63842773 94.32299805 C-134.22175661 92.23966774 -132.80508995 90.15633441 -131.38842773 88.07299805 C-122.88842773 75.57299805 -114.38842773 63.07299805 -105.88842773 50.57299805 C-105.1865332 49.54053955 -104.48463867 48.50808105 -103.76147461 47.44433594 C-102.35229861 45.37254256 -100.94215068 43.3014099 -99.53100586 41.23095703 C-96.25136754 36.41654809 -92.98085635 31.59680906 -89.7467041 26.7517395 C-88.61346986 25.05507479 -87.47701865 23.36060959 -86.33959961 21.66674805 C-84.92305751 19.5551325 -83.5124109 17.43954384 -82.10913086 15.3190918 C-71.79378807 -0.0159074 -61.19130601 -10.36023369 -42.90405273 -14.70825195 C-26.7435648 -17.38141537 -11.20569133 -11.40782619 0 0 Z M-58.00097656 39.42578125 C-60.44189482 42.16334565 -62.49789232 45.06995114 -64.52514648 48.1159668 C-64.93930313 48.73030075 -65.35345978 49.3446347 -65.78016663 49.97758484 C-67.13282461 51.98585109 -68.47931141 53.99817686 -69.82592773 56.01049805 C-70.77172589 57.4165901 -71.71802069 58.8223482 -72.66479492 60.2277832 C-74.58199967 63.07431582 -76.49734284 65.92208655 -78.41137695 68.77075195 C-82.21524204 74.42802537 -86.05068783 80.06365688 -89.88842773 85.69799805 C-91.26870604 87.72659627 -92.64891468 89.7552419 -94.02905273 91.78393555 C-94.70516602 92.77748047 -95.3812793 93.77102539 -96.07788086 94.79467773 C-99.59927571 99.96995993 -103.11873744 105.14655651 -106.63842773 110.32299805 C-108.0550855 112.40633743 -109.47175216 114.48967077 -110.88842773 116.57299805 C-111.58967773 117.60424805 -112.29092773 118.63549805 -113.01342773 119.69799805 C-141.70092773 161.88549805 -141.70092773 161.88549805 -170.38842773 204.07299805 C-171.08983887 205.10448975 -171.79125 206.13598145 -172.51391602 207.19873047 C-173.92893727 209.27963451 -175.3439763 211.36052646 -176.7590332 213.44140625 C-180.32602147 218.68680821 -183.8926893 223.93242754 -187.45874023 229.1784668 C-194.78535636 239.9560253 -202.11698504 250.73010681 -209.46166992 261.49536133 C-212.82466814 266.42567728 -216.18330388 271.35891363 -219.53686523 276.2956543 C-220.64868164 277.93219971 -220.64868164 277.93219971 -221.78295898 279.60180664 C-223.25207865 281.76464153 -224.72083779 283.92772135 -226.18920898 286.09106445 C-230.62688097 292.62258214 -235.10491397 299.12184592 -239.66967773 305.56518555 C-242.76892089 310.32944763 -242.7571604 315.3145586 -242.13842773 320.82299805 C-238.67908951 327.74167449 -232.87876536 331.16653357 -226.19702148 334.6237793 C-225.19006477 335.15326675 -225.19006477 335.15326675 -224.1627655 335.69345093 C-222.72067877 336.45099935 -221.27732378 337.20613755 -219.83282471 337.95907593 C-216.76028065 339.56065936 -213.69390113 341.17388792 -210.62701416 342.78627014 C-209.06056935 343.60959688 -207.49379509 344.43229708 -205.92669678 345.25437927 C-198.85094199 348.96708743 -191.80310468 352.72984664 -184.76342773 356.51049805 C-183.6305835 357.11821045 -182.49773926 357.72592285 -181.33056641 358.35205078 C-177.93282802 360.17503218 -174.53561166 361.99898366 -171.13842773 363.82299805 C-166.5556705 366.28240672 -161.97230953 368.74068599 -157.38842773 371.19799805 C-156.24760742 371.8096582 -155.10678711 372.42131836 -153.93139648 373.05151367 C-145.57596944 377.52730263 -137.20547321 381.97419809 -128.83099365 386.41421509 C-119.11556077 391.56561723 -109.410361 396.7314644 -99.76342773 402.01049805 C-98.49341919 402.7046582 -98.49341919 402.7046582 -97.19775391 403.4128418 C-93.38562969 405.49736603 -89.57447137 407.58360649 -85.76586914 409.67456055 C-82.79003256 411.30758732 -79.81028555 412.93330074 -76.82830811 414.55508423 C-75.11676833 415.48823138 -73.40904043 416.42835938 -71.70141602 417.36865234 C-70.65840332 417.93495361 -69.61539063 418.50125488 -68.54077148 419.0847168 C-67.61772217 419.58962646 -66.69467285 420.09453613 -65.74365234 420.61474609 C-63.14441234 421.8202225 -60.98216276 422.50749093 -58.13842773 422.82299805 C-55.05204004 421.5310218 -53.54018628 420.61129406 -52.00945204 417.6078192 C-51.0048276 414.39585442 -50.88889108 411.75659087 -50.88953876 408.3908596 C-50.88493997 407.08344791 -50.88034117 405.77603621 -50.87560302 404.42900598 C-50.88061795 402.97980014 -50.88582019 401.53059495 -50.89118958 400.08139038 C-50.88960141 398.54066153 -50.88713774 396.99993338 -50.88387316 395.45920718 C-50.87745394 391.22347485 -50.88353224 386.98783797 -50.89163744 382.75211191 C-50.89821021 378.18495278 -50.89326691 373.6178044 -50.88975525 369.05064392 C-50.88471087 360.10337764 -50.89035771 351.1561483 -50.89960555 342.20888661 C-50.90998211 331.79596608 -50.90991956 321.38305357 -50.90943297 310.97012885 C-50.90893221 292.39601234 -50.91809817 273.82191304 -50.93261719 255.24780273 C-50.94670896 237.21101569 -50.9537878 219.1742438 -50.953125 201.13745117 C-50.95308504 200.02631165 -50.95304509 198.91517212 -50.95300392 197.77036171 C-50.95294339 196.10657537 -50.95294339 196.10657537 -50.95288163 194.40917718 C-50.95219235 173.89221268 -50.95807812 153.37525463 -50.96703485 132.85829221 C-50.97005503 125.59400831 -50.97111486 118.32972559 -50.97156715 111.06544113 C-50.97224827 102.21849028 -50.97669876 93.3715503 -50.98589996 84.52460407 C-50.99052664 80.00784954 -50.99356025 75.49110895 -50.99230576 70.97435188 C-50.99121424 66.84423806 -50.99470748 62.71415513 -51.00195428 58.58404775 C-51.00377402 57.08550073 -51.00389171 55.58695054 -51.00218699 54.08840339 C-51.00013415 52.06008645 -51.00477086 50.03176597 -51.00979328 48.00345421 C-51.01084992 46.3096003 -51.01084992 46.3096003 -51.0119279 44.58152711 C-51.01703146 41.73312518 -51.01703146 41.73312518 -52.13842773 38.82299805 C-54.85465342 37.41805372 -55.65304013 37.4053064 -58.00097656 39.42578125 Z " fill="#000000" transform="translate(291.138427734375,30.177001953125)"/>
</svg>
